<svg xmlns="http://www.w3.org/2000/svg" xmlns:xlink="http://www.w3.org/1999/xlink" version="1.1" width="283.465"
     height="127.559" viewBox="0 0 283.465 127.559">
    <defs>
        <clipPath id="clip_0">
            <path transform="matrix(1,0,0,-1,0,127.559)" d="M0 127.559H283.465V0H0Z"/>
        </clipPath>
    </defs>
    <g id="layer_1" data-name="Layer 1">
        <path transform="matrix(1,0,0,-1,20.1771,107.0075)"
              d="M0 0-5.184-13.437-7.821-6.94-5.164-.089H-7L-9.051-5.566-11.082-.089H-12.919L-10.261-6.94-12.875-13.437-18.082 0H-20.177L-13.783-15.743H-12.098L-9.03-8.315-5.983-15.743H-4.299L2.118 0Z"
              fill="#24545a"/>
        <g clip-path="url(#clip_0)">
            <path transform="matrix(1,0,0,-1,32.6791,121.5423)"
                  d="M0 0C.605 0 1.196 .13 1.772 .388 2.347 .647 2.801 .963 3.132 1.337 3.406 1.653 3.544 1.948 3.544 2.221V3.882C3.096 4.054 2.625 4.187 2.129 4.281 1.632 4.374 1.153 4.421 .691 4.421-.288 4.421-1.073 4.223-1.663 3.828-2.254 3.432-2.549 2.89-2.549 2.2-2.549 1.912-2.491 1.635-2.376 1.369-2.26 1.103-2.094 .87-1.878 .669-1.663 .467-1.397 .305-1.079 .183-.763 .061-.403 0 0 0M-.474-1.423C-1.037-1.423-1.555-1.333-2.03-1.154-2.505-.974-2.915-.73-3.261-.421-3.607-.112-3.878 .255-4.072 .679-4.266 1.103-4.363 1.553-4.363 2.027-4.363 2.559-4.248 3.044-4.018 3.483-3.788 3.921-3.46 4.295-3.035 4.604-2.609 4.913-2.106 5.15-1.523 5.316-.939 5.481-.302 5.564 .389 5.564 .937 5.564 1.492 5.513 2.053 5.413 2.615 5.312 3.112 5.175 3.544 5.003V5.909C3.544 6.829 3.284 7.551 2.766 8.076 2.247 8.601 1.512 8.863 .563 8.863-.576 8.863-1.77 8.424-3.023 7.548L-3.65 8.777C-2.915 9.266-2.188 9.632-1.469 9.877-.749 10.121 0 10.244 .779 10.244 2.218 10.244 3.356 9.848 4.191 9.057 5.026 8.266 5.444 7.152 5.444 5.715V1.122C5.444 .676 5.646 .446 6.049 .432V-1.208C5.905-1.236 5.769-1.258 5.639-1.272 5.509-1.286 5.386-1.294 5.272-1.294 4.954-1.294 4.645-1.208 4.343-1.035 4.04-.863 3.875-.568 3.846-.151L3.803 .647C3.544 .302 3.248 0 2.917-.258 2.585-.518 2.233-.733 1.858-.906 1.484-1.078 1.099-1.208 .703-1.294 .306-1.38-.086-1.423-.474-1.423"
                  fill="#24545a"/>
            <path transform="matrix(1,0,0,-1,47.9793,107.0078)"
                  d="M0 0H1.902V-12.831C1.902-13.248 2.012-13.575 2.236-13.812 2.459-14.049 2.773-14.168 3.176-14.168 3.334-14.168 3.522-14.143 3.738-14.093 3.953-14.042 4.155-13.981 4.341-13.909L4.645-15.44C4.327-15.57 3.953-15.677 3.522-15.764 3.089-15.85 2.707-15.893 2.376-15.893 1.642-15.893 1.061-15.685 .637-15.267 .212-14.851 0-14.268 0-13.521Z"
                  fill="#24545a"/>
            <path transform="matrix(1,0,0,-1,70.7359,122.7499)"
                  d="M0 0-3.888 5.499-6.049 3.472V0H-7.949V15.742H-6.049V5.391L-.26 11.235H1.836L-2.657 6.577 2.052 0Z"
                  fill="#24545a"/>
            <path transform="matrix(1,0,0,-1,89.0443,116.367)"
                  d="M0 0C-.042 .532-.176 1.025-.4 1.478-.623 1.93-.903 2.314-1.241 2.631-1.58 2.947-1.972 3.195-2.419 3.375-2.865 3.555-3.341 3.645-3.844 3.645-4.349 3.645-4.825 3.555-5.27 3.375-5.718 3.195-6.109 2.944-6.447 2.62-6.787 2.297-7.06 1.912-7.268 1.467-7.478 1.021-7.604 .532-7.646 0ZM-3.866-6.598C-4.717-6.598-5.494-6.444-6.199-6.135-6.905-5.826-7.51-5.406-8.014-4.873-8.518-4.342-8.91-3.72-9.192-3.008-9.472-2.297-9.612-1.546-9.612-.754-9.612 .036-9.472 .784-9.192 1.488-8.91 2.193-8.515 2.811-8.003 3.343-7.492 3.875-6.883 4.295-6.178 4.605-5.472 4.913-4.695 5.068-3.844 5.068-2.995 5.068-2.221 4.91-1.523 4.594-.824 4.277-.23 3.857 .26 3.332 .749 2.807 1.127 2.196 1.394 1.499 1.66 .802 1.794 .079 1.794-.668 1.794-.827 1.79-.97 1.782-1.1 1.776-1.229 1.764-1.329 1.75-1.401H-7.604C-7.56-1.962-7.43-2.473-7.214-2.933-6.999-3.393-6.718-3.788-6.372-4.118-6.026-4.449-5.634-4.708-5.195-4.895-4.755-5.082-4.291-5.175-3.802-5.175-3.456-5.175-3.117-5.128-2.786-5.035-2.455-4.942-2.146-4.816-1.858-4.658-1.569-4.499-1.314-4.306-1.091-4.075-.867-3.846-.698-3.587-.583-3.299L1.059-3.752C.871-4.169 .617-4.55 .292-4.895-.032-5.24-.406-5.538-.831-5.79-1.257-6.042-1.728-6.239-2.246-6.383-2.765-6.527-3.305-6.598-3.866-6.598"
                  fill="#24545a"/>
            <path transform="matrix(1,0,0,-1,105.7858,113.1534)"
                  d="M0 0C-.949-.029-1.79-.273-2.516-.734-3.244-1.193-3.758-1.833-4.061-2.652V-9.596H-5.962V1.66H-4.19V-.949C-3.802-.173-3.29 .471-2.657 .981-2.024 1.491-1.347 1.747-.626 1.747H-.258C-.158 1.747-.072 1.739 0 1.725Z"
                  fill="#24545a"/>
            <path transform="matrix(1,0,0,-1,131.6457,110.4665)"
                  d="M0 0C0-.161 .024-.321 .075-.481 .125-.642 .212-.821 .334-1.017 .456-1.215 .626-1.445 .842-1.707 1.057-1.97 1.331-2.284 1.663-2.648 2.398-2.153 3.003-1.685 3.477-1.247 3.952-.81 4.19-.314 4.19 .241 4.19 .752 4.002 1.171 3.628 1.5 3.254 1.828 2.779 1.992 2.202 1.992 1.555 1.992 1.025 1.799 .615 1.412 .204 1.025 0 .555 0 0M2.311-10.966C2.959-10.966 3.564-10.836 4.126-10.573 4.687-10.31 5.191-9.946 5.638-9.478L1.273-4.815C.596-5.312 .046-5.826-.379-6.359-.803-6.892-1.016-7.501-1.016-8.187-1.016-8.624-.923-9.019-.735-9.369-.549-9.719-.299-10.011 .01-10.245 .32-10.478 .672-10.657 1.069-10.781 1.465-10.905 1.878-10.966 2.311-10.966M8.273-12.28 6.675-10.595C6.055-11.207 5.36-11.678 4.589-12.007 3.82-12.335 2.995-12.499 2.116-12.499 1.411-12.499 .755-12.389 .15-12.171-.455-11.952-.98-11.649-1.426-11.262-1.873-10.876-2.223-10.42-2.475-9.894-2.726-9.369-2.852-8.792-2.852-8.165-2.852-7.654-2.769-7.184-2.603-6.753-2.439-6.322-2.215-5.925-1.934-5.56-1.654-5.195-1.33-4.856-.962-4.542-.595-4.228-.209-3.925 .194-3.634-.166-3.239-.469-2.882-.713-2.561-.958-2.24-1.156-1.937-1.308-1.652-1.458-1.368-1.57-1.098-1.642-.842-1.715-.587-1.75-.321-1.75-.044-1.75 .452-1.65 .916-1.448 1.346-1.246 1.777-.969 2.149-.617 2.463-.263 2.776 .154 3.021 .636 3.196 1.119 3.371 1.641 3.459 2.202 3.459 2.721 3.459 3.207 3.386 3.66 3.24 4.114 3.094 4.511 2.883 4.849 2.605 5.187 2.328 5.454 1.992 5.648 1.598 5.842 1.204 5.94 .766 5.94 .285 5.94-.153 5.858-.562 5.692-.941 5.526-1.321 5.303-1.674 5.022-2.002 4.741-2.331 4.406-2.641 4.018-2.933 3.628-3.225 3.219-3.517 2.786-3.809L6.697-7.968C6.969-7.443 7.182-6.87 7.334-6.249 7.484-5.629 7.56-4.969 7.56-4.268H9.136C9.122-5.217 9.004-6.1 8.781-6.917 8.557-7.734 8.237-8.479 7.82-9.15L10.778-12.28Z"
                  fill="#24545a"/>
            <path transform="matrix(1,0,0,-1,168.6262,107.0968)"
                  d="M0 0H1.837L3.867-5.476 5.919 0H7.755L5.098-6.851 7.735-13.347 12.919 .089H15.036L8.62-15.653H6.936L3.889-8.225 .821-15.653H-.863L-7.258 .089H-5.162L.044-13.347 2.658-6.851Z"
                  fill="#24545a"/>
            <path transform="matrix(1,0,0,-1,198.6508,116.367)"
                  d="M0 0C-.042 .532-.176 1.025-.4 1.478-.623 1.93-.903 2.314-1.241 2.631-1.58 2.947-1.972 3.195-2.419 3.375-2.865 3.555-3.341 3.645-3.844 3.645-4.349 3.645-4.825 3.555-5.27 3.375-5.718 3.195-6.109 2.944-6.447 2.62-6.786 2.297-7.06 1.912-7.268 1.467-7.478 1.021-7.604 .532-7.646 0ZM-3.866-6.598C-4.717-6.598-5.494-6.444-6.199-6.135-6.905-5.826-7.51-5.406-8.014-4.873-8.518-4.342-8.91-3.72-9.192-3.008-9.472-2.297-9.612-1.546-9.612-.754-9.612 .036-9.472 .784-9.192 1.488-8.91 2.193-8.515 2.811-8.003 3.343-7.492 3.875-6.883 4.295-6.177 4.605-5.472 4.913-4.695 5.068-3.844 5.068-2.995 5.068-2.221 4.91-1.523 4.594-.824 4.277-.23 3.857 .26 3.332 .749 2.807 1.127 2.196 1.394 1.499 1.66 .802 1.794 .079 1.794-.668 1.794-.827 1.79-.97 1.782-1.1 1.776-1.229 1.764-1.329 1.75-1.401H-7.604C-7.56-1.962-7.43-2.473-7.214-2.933-6.999-3.393-6.718-3.788-6.372-4.118-6.026-4.449-5.634-4.708-5.195-4.895-4.755-5.082-4.291-5.175-3.802-5.175-3.456-5.175-3.117-5.128-2.786-5.035-2.455-4.942-2.146-4.816-1.858-4.658-1.569-4.499-1.314-4.306-1.091-4.075-.867-3.846-.698-3.587-.583-3.299L1.059-3.752C.871-4.169 .617-4.55 .292-4.895-.032-5.24-.406-5.538-.831-5.79-1.257-6.042-1.728-6.239-2.246-6.383-2.765-6.527-3.305-6.598-3.866-6.598"
                  fill="#24545a"/>
            <path transform="matrix(1,0,0,-1,0,127.559)"
                  d="M208.958 16.066H210.85799V4.809H208.958ZM208.958 20.551H210.85799V18.179H208.958Z" fill="#24545a"/>
            <path transform="matrix(1,0,0,-1,225.8512,121.3268)"
                  d="M0 0C.403 0 .793 .072 1.167 .216 1.542 .359 1.887 .55 2.203 .788 2.521 1.025 2.787 1.294 3.003 1.596 3.219 1.898 3.362 2.207 3.436 2.524V5.758C3.276 6.146 3.071 6.498 2.819 6.814 2.567 7.131 2.283 7.408 1.966 7.645 1.65 7.882 1.307 8.066 .941 8.195 .573 8.324 .202 8.389-.172 8.389-.749 8.389-1.263 8.266-1.717 8.022-2.17 7.778-2.556 7.454-2.873 7.052-3.19 6.649-3.434 6.192-3.608 5.683-3.78 5.172-3.866 4.658-3.866 4.141-3.866 3.58-3.766 3.048-3.564 2.545-3.362 2.041-3.089 1.603-2.743 1.229-2.398 .855-1.99 .557-1.523 .335-1.055 .112-.547 0 0 0M-.583-1.553C-1.347-1.553-2.048-1.394-2.689-1.078-3.33-.762-3.881-.338-4.341 .194-4.803 .726-5.159 1.337-5.41 2.027-5.664 2.717-5.789 3.436-5.789 4.184-5.789 4.974-5.664 5.726-5.41 6.437-5.159 7.149-4.803 7.771-4.341 8.303-3.881 8.835-3.33 9.255-2.689 9.564-2.048 9.873-1.339 10.028-.561 10.028 .389 10.028 1.21 9.798 1.902 9.338 2.593 8.878 3.176 8.295 3.652 7.591V9.834H5.336V-1.294C5.336-2.098 5.184-2.806 4.882-3.417 4.58-4.029 4.169-4.542 3.652-4.96 3.132-5.377 2.525-5.693 1.826-5.908 1.127-6.124 .382-6.232-.41-6.232-1.692-6.232-2.733-6.013-3.532-5.574-4.331-5.136-4.997-4.528-5.53-3.752L-4.428-2.781C-3.982-3.443-3.406-3.939-2.699-4.27-1.994-4.6-1.231-4.766-.41-4.766 .108-4.766 .601-4.694 1.07-4.55 1.538-4.406 1.944-4.19 2.29-3.903 2.635-3.615 2.913-3.256 3.122-2.825 3.33-2.393 3.436-1.883 3.436-1.294V.69C3.219 .345 2.963 .033 2.669-.248 2.373-.528 2.053-.765 1.708-.959 1.362-1.154 .994-1.301 .605-1.401 .216-1.502-.18-1.553-.583-1.553"
                  fill="#24545a"/>
            <path transform="matrix(1,0,0,-1,250.867,122.7499)"
                  d="M0 0H-1.902V6.297C-1.902 7.462-2.103 8.327-2.507 8.896-2.91 9.463-3.5 9.747-4.277 9.747-4.652 9.747-5.026 9.671-5.401 9.521-5.775 9.37-6.125 9.165-6.449 8.906-6.772 8.647-7.061 8.338-7.313 7.979-7.565 7.619-7.755 7.224-7.885 6.793V0H-9.787V15.742H-7.885V8.842C-7.439 9.661-6.834 10.301-6.071 10.761-5.308 11.221-4.473 11.451-3.564 11.451-2.902 11.451-2.341 11.329-1.88 11.084-1.418 10.84-1.052 10.509-.779 10.092-.505 9.675-.307 9.176-.184 8.593-.062 8.011 0 7.389 0 6.728Z"
                  fill="#24545a"/>
            <path transform="matrix(1,0,0,-1,266.4418,122.1894)"
                  d="M0 0C-.116-.058-.266-.126-.454-.205-.641-.284-.853-.363-1.091-.442-1.329-.521-1.588-.586-1.868-.636-2.15-.686-2.441-.711-2.743-.711-3.434-.711-4.032-.521-4.537-.14-5.04 .24-5.292 .834-5.292 1.639V9.208H-6.826V10.696H-5.292V15.182H-3.391V10.696H-.863V9.208H-3.391V2.221C-3.362 1.804-3.226 1.503-2.981 1.316-2.737 1.129-2.448 1.035-2.116 1.035-1.742 1.035-1.4 1.096-1.091 1.218-.781 1.34-.569 1.438-.454 1.51Z"
                  fill="#24545a"/>
            <path transform="matrix(1,0,0,-1,278.9933,122.9654)"
                  d="M0 0C-.907 0-1.8 .14-2.679 .42-3.558 .701-4.313 1.107-4.947 1.639L-4.127 2.911C-3.464 2.407-2.801 2.03-2.139 1.779-1.476 1.527-.777 1.401-.044 1.401 .777 1.401 1.429 1.564 1.912 1.887 2.394 2.21 2.635 2.667 2.635 3.256 2.635 3.529 2.571 3.763 2.441 3.957 2.311 4.151 2.117 4.32 1.858 4.463 1.598 4.607 1.267 4.737 .863 4.852 .46 4.967-.008 5.089-.541 5.218-1.218 5.391-1.8 5.556-2.29 5.715-2.78 5.872-3.184 6.06-3.5 6.275-3.817 6.491-4.047 6.75-4.191 7.052-4.335 7.353-4.407 7.727-4.407 8.173-4.407 8.733-4.295 9.233-4.072 9.671-3.849 10.11-3.544 10.476-3.154 10.771-2.765 11.066-2.309 11.289-1.782 11.44-1.257 11.591-.691 11.667-.086 11.667 .763 11.667 1.555 11.529 2.29 11.257 3.025 10.984 3.642 10.624 4.147 10.178L3.283 9.035C2.809 9.452 2.275 9.765 1.684 9.974 1.095 10.182 .49 10.286-.13 10.286-.821 10.286-1.408 10.138-1.89 9.844-2.373 9.549-2.615 9.078-2.615 8.432-2.615 8.173-2.567 7.957-2.473 7.785-2.381 7.612-2.225 7.461-2.009 7.332-1.794 7.202-1.516 7.087-1.178 6.987-.839 6.886-.432 6.778 .042 6.663 .791 6.491 1.443 6.315 1.998 6.135 2.552 5.955 3.013 5.743 3.38 5.499 3.748 5.254 4.022 4.967 4.201 4.636 4.381 4.305 4.471 3.903 4.471 3.428 4.471 2.379 4.068 1.545 3.262 .927 2.455 .309 1.368 0 0 0"
                  fill="#24545a"/>
            <path transform="matrix(1,0,0,-1,84.8586,.00039672853)"
                  d="M0 0C7.482 .012 14.899-.216 21.947-3.467 26.882-5.743 30.339-9.368 32.548-14.668 37.568-26.712 42.608-39.249 47.261-51.471 51.48-62.554 49.843-74.659 44.347-85.039 44.347-85.039 25.865-39.772 17.273-18.758 12.484-7.047 7.406-3.047 0 0"
                  fill="#c49a53"/>
            <path transform="matrix(1,0,0,-1,168.6334,-.00009918213)"
                  d="M0 0C7.665-2.852 12.636-7.861 14.772-16.101 16.907-7.861 21.946-2.852 29.611 0Z" fill="#c49a53"/>
            <path transform="matrix(1,0,0,-1,168.4291,51.4712)"
                  d="M0 0C-4.042 10.618-8.378 21.455-12.738 32.019L-12.726 32.011C-12.776 32.117-12.815 32.216-12.863 32.321-13.172 33.069-13.48 33.821-13.79 34.566-18.74 48.147-7.627 51.471-7.627 51.471H-47.261C-39.855 48.424-34.777 44.424-29.988 32.713-21.396 11.699-2.914-33.568-2.914-33.568 2.582-23.189 4.219-11.083 0 0"
                  fill="#c49a53"/>
        </g>
    </g>
</svg>
