<svg version="1.1" id="Layer_1" xmlns="http://www.w3.org/2000/svg" xmlns:xlink="http://www.w3.org/1999/xlink" x="0px"
     y="0px"
     width="100%" viewBox="0 0 1490 1252" enable-background="new 0 0 1490 1252" xml:space="preserve">
<path fill="#000000" opacity="0.000000" stroke="none"
      d="
M1.000000,464.000000 
	C1.000000,309.333344 1.000000,155.166672 1.000000,1.000000 
	C497.666656,1.000000 994.333313,1.000000 1491.000000,1.000000 
	C1491.000000,418.333344 1491.000000,835.666687 1491.000000,1253.000000 
	C994.333313,1253.000000 497.666656,1253.000000 1.000000,1253.000000 
	C1.000000,990.166687 1.000000,727.333313 1.000000,464.000000 
M957.997742,116.996277 
	C957.997742,116.996277 957.993958,116.856659 957.456055,117.053894 
	C957.256958,117.369225 957.057800,117.684547 956.997803,117.996338 
	C956.997803,117.996338 956.993958,117.857269 956.455994,118.054131 
	C956.256653,118.369339 956.057373,118.684540 955.997681,118.996399 
	C955.997681,118.996399 955.994019,118.856781 955.455688,119.053719 
	C955.255920,119.368980 955.056213,119.684235 954.997253,119.996178 
	C954.997253,119.996178 954.993591,119.855461 954.455261,120.053085 
	C954.255310,120.368538 954.055359,120.683990 953.997131,120.995834 
	C953.997131,120.995834 953.993286,120.854080 953.454895,121.052567 
	C953.254761,121.368126 953.054626,121.683678 952.996948,121.995758 
	C952.996948,121.995758 952.993164,121.853363 952.455078,122.052567 
	C952.254883,122.368118 952.054749,122.683662 951.996948,122.995796 
	C951.996948,122.995796 951.993286,122.853485 951.455505,123.053062 
	C951.255554,123.368515 951.055603,123.683968 950.997192,123.995872 
	C950.997192,123.995872 950.993408,123.854294 950.455994,124.053703 
	C950.256226,124.369019 950.056396,124.684334 949.997498,124.996078 
	C949.997498,124.996078 949.993591,124.855247 949.456055,125.054016 
	C949.256653,125.369339 949.057251,125.684662 948.998047,125.995972 
	C948.998047,125.995972 948.993652,125.855843 948.455627,126.053604 
	C948.256470,126.369080 948.057312,126.684555 947.998108,126.995857 
	C947.998108,126.995857 947.993591,126.855995 947.454895,127.052734 
	C947.255859,127.368469 947.056824,127.684204 946.950867,127.961555 
	C946.950867,127.961555 946.910767,127.869202 946.304382,128.158005 
	C931.187866,143.386703 916.071289,158.615417 900.344849,174.139801 
	C888.549866,186.048401 876.754944,197.956985 864.348511,210.155136 
	C849.529541,225.087799 834.710571,240.020462 819.285767,255.223587 
	C802.160522,272.474060 785.035278,289.724548 767.301941,307.238770 
	C753.849487,320.819885 740.396973,334.400970 726.331604,348.242920 
	C712.211609,362.461395 698.091614,376.679840 683.346741,391.156372 
	C666.307373,408.194153 649.246887,425.210876 632.236023,442.277069 
	C620.748413,453.802032 609.330566,465.396637 597.274597,477.224274 
	C581.756409,492.743317 566.216675,508.240875 550.726868,523.788269 
	C538.413574,536.147278 526.161377,548.567200 513.252197,561.249756 
	C510.915649,563.548523 508.849213,565.563660 508.866699,569.556702 
	C509.068970,615.718811 509.005341,661.882141 509.012299,708.045105 
	C509.012543,709.623535 509.012360,711.201904 509.012360,712.997498 
	C537.479187,712.997498 565.143799,712.591125 592.788818,713.150879 
	C609.216980,713.483521 622.092712,695.306946 613.172241,678.368103 
	C608.280273,669.078796 600.107971,666.388245 590.748169,666.082458 
	C579.651001,665.719849 568.532959,665.997192 557.115112,665.997192 
	C557.115112,638.624451 557.115112,611.832947 557.713257,584.759583 
	C576.057373,566.425964 594.420715,548.111633 612.737366,529.750610 
	C621.883911,520.581848 630.945068,511.327881 640.652954,501.821960 
	C661.532288,480.953369 682.418396,460.091553 703.269531,439.194824 
	C704.246155,438.216095 704.910522,436.925842 706.164734,435.294220 
	C706.995239,434.791595 707.969421,434.432465 708.635254,433.765503 
	C725.065308,417.308472 741.462585,400.818787 758.397400,384.022766 
	C770.611938,371.719574 782.826538,359.416412 795.661377,346.845215 
	C813.457947,328.931732 831.254517,311.018250 849.669800,292.837219 
	C857.244751,285.251068 864.819641,277.664917 872.394592,270.078766 
	C872.994690,270.113312 873.594727,270.147888 874.194824,270.182465 
	C876.851990,285.123230 879.509155,300.063965 882.030151,315.932709 
	C882.579224,333.553528 881.553528,351.041809 876.947144,368.137939 
	C874.605469,376.828735 871.776062,385.388153 868.831604,394.690552 
	C861.786987,411.034821 854.798706,427.403748 847.666321,443.709686 
	C845.261169,449.208405 842.490723,454.547394 839.425415,460.102936 
	C839.127319,460.294281 838.977478,460.567047 838.505493,461.107727 
	C838.409546,461.400085 838.313538,461.692444 837.890320,462.635468 
	C834.223755,469.302704 830.635681,476.014587 826.872314,482.626648 
	C821.283997,492.444916 815.571594,502.192505 809.307129,512.268066 
	C808.197510,514.157043 807.087891,516.045959 805.493103,518.100769 
	C805.402222,518.396240 805.311340,518.691711 804.908447,519.634399 
	C797.233704,531.649353 789.260132,543.487793 782.013367,555.755493 
	C778.518982,561.670959 772.064148,566.664307 774.019714,575.894165 
	C774.019714,605.801147 774.019714,635.708069 774.019714,666.003235 
	C764.271667,666.003235 755.144287,665.871582 746.022034,666.032532 
	C730.279358,666.310303 718.604370,674.782227 719.919434,692.631042 
	C720.746460,703.856140 729.733215,712.981689 741.044922,712.987732 
	C766.186340,713.001221 791.327820,712.997131 816.469238,713.000000 
	C818.224121,713.000244 819.979004,713.000000 821.814453,713.000000 
	C821.814453,698.150085 821.814453,684.020264 821.941650,668.977539 
	C821.951172,641.882446 822.018982,614.787170 821.905396,587.692566 
	C821.888977,583.766602 822.780762,580.567871 825.040894,577.266113 
	C829.982483,570.047363 834.392212,562.464600 839.491394,554.873962 
	C839.851868,554.670593 839.939148,554.383972 839.936096,553.558472 
	C839.936096,553.558472 840.025635,553.075684 840.520630,552.911682 
	C840.613403,552.611084 840.706116,552.310425 841.062378,551.410583 
	C841.320068,551.061340 841.577698,550.712097 842.380615,550.000610 
	C843.038818,548.720886 843.628113,547.399902 844.365723,546.167664 
	C852.571655,532.460205 860.800537,518.766479 869.502563,504.895325 
	C869.596313,504.600830 869.690063,504.306335 870.059326,503.416412 
	C870.382874,502.641937 870.706421,501.867493 871.521851,500.916687 
	C871.615540,500.614990 871.709229,500.313293 872.036743,499.453491 
	C872.290710,499.140564 872.544739,498.827637 873.321533,498.085083 
	C875.132263,494.632782 877.022461,491.219513 878.740112,487.721527 
	C886.200134,472.528931 893.609741,457.311554 901.687012,441.755310 
	C907.101440,427.576385 912.938232,413.539764 917.780579,399.168060 
	C920.967712,389.708832 922.721497,379.766571 925.794678,369.611115 
	C927.195984,356.950653 929.216736,344.319153 929.810852,331.620911 
	C930.325500,320.621887 929.222290,309.547180 928.886658,297.653564 
	C928.537842,295.429108 928.188965,293.204620 927.878601,290.455750 
	C927.597534,290.261658 927.316467,290.067596 927.011536,289.029297 
	C926.578247,285.804657 926.619202,282.426117 925.631226,279.381470 
	C920.891541,264.775208 915.808655,250.280426 911.057129,235.677902 
	C910.592468,234.249954 910.992920,231.855148 911.958252,230.764847 
	C916.341187,225.814651 921.070496,221.171219 925.713562,216.201126 
	C925.713562,216.201126 925.523560,216.091003 926.233887,216.071884 
	C926.536072,215.726669 926.838318,215.381454 927.742432,214.766220 
	C943.215759,199.194229 958.689148,183.622238 974.764526,167.782135 
	C983.276733,159.200806 991.788879,150.619492 1000.868225,141.466400 
	C1007.851379,148.732910 1014.611389,155.767197 1021.889954,163.341080 
	C1024.005859,156.503891 1025.942139,150.247391 1028.008789,143.583664 
	C1028.008789,143.583664 1028.056030,143.158707 1028.632202,142.862701 
	C1028.714233,142.248718 1028.796265,141.634750 1029.007690,140.597382 
	C1029.007690,140.597382 1029.055176,140.157181 1029.631226,139.862503 
	C1029.712158,139.249237 1029.793091,138.635971 1030.004639,137.596893 
	C1030.004639,137.596893 1030.053955,137.154236 1030.630371,136.861877 
	C1030.709473,136.249496 1030.788574,135.637115 1031.182983,134.345337 
	C1040.813843,106.790405 1050.444702,79.235481 1060.325317,50.966053 
	C1053.181763,53.483994 1046.822998,55.755074 1040.444092,57.967930 
	C1022.963379,64.031982 1005.474060,70.071541 987.348450,76.000107 
	C986.845154,76.314796 986.341919,76.629486 985.404724,76.989868 
	C985.404724,76.989868 984.988525,77.120735 984.347717,77.001053 
	C983.843384,77.314613 983.338989,77.628174 982.403198,77.987022 
	C982.403198,77.987022 981.989624,78.117744 981.347351,77.998596 
	C980.841980,78.312523 980.336548,78.626450 979.411499,78.985542 
	C979.411499,78.985542 979.010498,79.117027 978.241028,79.008774 
	C968.265503,82.450096 958.289978,85.891418 948.976807,89.104263 
	C954.683228,95.175804 960.260071,101.109497 965.951416,107.692238 
	C965.914062,108.130203 965.876709,108.568169 965.990356,109.009621 
	C965.990356,109.009621 965.994141,108.858627 965.456116,109.054520 
	C965.257202,109.369637 965.058289,109.684761 964.997742,109.996437 
	C964.997742,109.996437 964.994019,109.858017 964.455566,110.053795 
	C964.256470,110.369102 964.057312,110.684410 963.997620,110.996208 
	C963.997620,110.996208 963.993835,110.856834 963.454956,111.052948 
	C963.255554,111.368492 963.056091,111.684036 962.997375,111.995941 
	C962.997375,111.995941 962.993469,111.855217 962.454285,112.051971 
	C962.254578,112.367775 962.054871,112.683586 961.997192,112.995773 
	C961.997192,112.995773 961.993286,112.853745 961.454102,113.051323 
	C961.254272,113.367302 961.054443,113.683289 960.997131,113.995682 
	C960.997131,113.995682 960.993225,113.853142 960.454224,114.051277 
	C960.254456,114.367279 960.054749,114.683289 959.997131,114.995735 
	C959.997131,114.995735 959.993286,114.853699 959.454773,115.051979 
	C959.255371,115.367813 959.055908,115.683640 958.997375,115.996056 
	C958.997375,115.996056 958.993652,115.855186 958.455627,116.053101 
	C958.256409,116.368629 958.057251,116.684166 957.997742,116.996277 
M683.762146,915.954590 
	C710.665100,908.098083 727.419556,888.303772 742.996521,866.162781 
	C708.495850,866.162781 674.747864,866.162781 640.072632,866.019592 
	C622.239319,866.019592 604.406067,866.019592 586.572754,866.019592 
	C586.309204,866.517090 586.045654,867.014648 585.782166,867.512146 
	C597.098267,878.754272 607.992981,890.464539 619.834717,901.122620 
	C635.446655,915.174194 654.471924,919.649292 675.091431,917.927551 
	C677.766479,917.704224 680.364380,916.556641 683.762146,915.954590 
M593.154602,84.992615 
	C573.716553,90.136688 554.509766,95.901520 536.170471,106.005661 
	C531.346313,108.340225 526.295227,110.301239 521.735107,113.070572 
	C493.979492,129.926285 468.766968,149.862778 447.266724,175.227676 
	C445.323730,177.835464 443.383026,180.444977 441.437378,183.050781 
	C427.826843,201.279205 415.939117,220.548080 408.079254,241.962036 
	C403.506622,254.419937 400.090118,267.302185 396.018188,280.832428 
	C392.224213,302.587189 388.797974,324.438232 392.135193,346.526489 
	C394.026703,359.046204 396.403168,371.628204 400.095337,383.713440 
	C409.174103,413.430298 422.519775,441.380798 437.602203,468.942535 
	C446.863434,459.663696 456.035950,450.500336 465.178894,441.307526 
	C481.832733,424.562836 498.469086,407.800720 515.714905,390.770203 
	C535.180542,370.861725 554.646179,350.953247 574.715393,330.771027 
	C591.822937,313.545746 608.930542,296.320496 626.659241,278.832123 
	C636.045349,269.449097 645.431458,260.066071 655.420288,250.080490 
	C662.758240,257.501282 669.728516,264.550232 676.676147,271.576324 
	C678.817810,265.019012 680.927246,258.560303 683.523132,251.918381 
	C683.619812,251.617950 683.716553,251.317520 683.966431,250.366882 
	C684.014038,249.924759 684.061646,249.482635 684.765869,248.671051 
	C691.388367,229.039291 697.988892,209.400085 704.642578,189.778915 
	C707.973694,179.955612 711.401733,170.165161 715.006226,159.721741 
	C702.187378,164.116058 690.250427,168.189026 678.326843,172.300522 
	C665.201294,176.826462 652.087952,181.387848 638.200195,186.016403 
	C626.524292,189.973709 614.848328,193.931015 602.051514,198.268234 
	C608.805847,204.961487 614.750000,210.851822 621.486145,217.527008 
	C615.594971,223.018723 609.763245,228.454971 603.322083,234.171555 
	C580.865112,257.078644 558.408142,279.985718 535.335754,303.167358 
	C516.876648,321.739319 498.417603,340.311279 479.343994,359.162994 
	C470.136292,368.413757 460.928589,377.664520 451.322021,387.316040 
	C451.113403,385.926697 451.139130,385.394073 450.951752,384.951782 
	C443.573792,367.538086 440.772797,349.197693 440.040863,330.466583 
	C439.774506,323.649292 439.891144,316.816986 439.996704,309.166260 
	C441.082489,302.259521 441.734741,295.250732 443.331665,288.464264 
	C449.191376,263.561615 459.144318,240.414001 474.029663,219.505417 
	C477.977325,213.960327 482.080566,208.526047 486.720215,202.762497 
	C496.888092,193.159042 506.337250,182.609604 517.410095,174.197266 
	C530.558228,164.208252 545.103088,156.057663 559.795532,147.005356 
	C567.280762,143.981140 574.607483,140.450821 582.286560,138.045517 
	C595.406311,133.936035 608.746887,130.531815 622.838379,126.979759 
	C635.859009,125.985725 648.865845,124.664490 661.905212,124.115631 
	C670.243286,123.764664 678.629333,124.555046 687.428345,124.985397 
	C687.428345,124.985397 687.885620,125.036690 688.295227,125.706581 
	C689.852722,125.749466 691.410217,125.792351 693.796326,125.982979 
	C696.360840,126.395706 698.985718,126.584518 701.480042,127.257408 
	C717.994995,131.712616 734.481934,136.271713 750.797424,140.747437 
	C762.055786,129.585510 773.831787,117.910439 785.698975,106.144882 
	C785.066101,105.764671 784.399658,105.313194 783.689880,104.945389 
	C764.869263,95.192848 744.783325,89.036400 724.303955,83.959625 
	C701.194397,78.230858 677.766907,75.952576 653.069153,77.030846 
	C642.612488,77.692513 632.087036,77.825287 621.719482,79.172798 
	C612.380859,80.386581 603.215149,82.931648 593.154602,84.992615 
M733.722839,290.786530 
	C741.356079,283.156342 748.892822,275.426453 756.645203,267.919281 
	C768.365173,256.570129 780.235474,245.376236 792.661438,233.846298 
	C802.518799,224.183380 812.376160,214.520447 823.541321,203.575455 
	C830.149841,210.627609 836.325134,217.217468 842.599182,223.912689 
	C847.021667,210.576050 851.427612,197.289398 856.176697,183.320343 
	C864.246765,160.061356 872.316772,136.802368 880.876221,112.132812 
	C871.165344,115.479805 863.086121,118.255150 855.013245,121.049019 
	C842.664062,125.322845 830.319275,129.609421 817.197266,133.988953 
	C801.075012,139.437836 784.952698,144.886734 768.830444,150.335617 
	C768.586792,150.917465 768.343140,151.499329 768.099548,152.081177 
	C774.888245,158.318710 781.676941,164.556259 787.530151,169.934265 
	C779.320435,178.622437 771.601440,186.791336 763.275574,195.225403 
	C752.712219,205.786194 742.190002,216.388519 731.573181,226.895340 
	C722.065796,236.304337 712.454163,245.608109 702.279480,255.221191 
	C696.054138,261.444611 689.862305,267.701996 683.596558,273.884430 
	C670.389709,286.915558 657.144043,299.907379 643.303223,313.188110 
	C633.166382,322.993073 623.038452,332.807312 612.890076,342.600281 
	C603.920532,351.255737 594.860657,359.818695 585.960266,368.544434 
	C568.631226,385.533447 551.385864,402.607849 533.581665,419.966583 
	C507.072723,446.105804 480.563812,472.245026 453.923431,498.513855 
	C462.802246,512.414062 471.545532,526.102051 480.468323,540.071045 
	C496.085815,524.440063 511.510712,509.040009 526.892090,493.596588 
	C542.322998,478.103424 557.710388,462.566986 573.733826,446.803497 
	C583.855652,436.668488 593.973938,426.529968 604.100342,416.399597 
	C612.933350,407.563049 621.738281,398.698090 630.622864,389.913666 
	C642.066772,378.598694 653.577637,367.351440 665.679016,355.810364 
	C671.358093,350.462158 677.100037,345.178802 682.698669,339.747681 
	C688.439514,334.178650 693.956299,328.377899 699.720093,322.833344 
	C710.794922,312.179810 721.974976,301.635620 733.722839,290.786530 
M661.075256,798.023560 
	C633.452759,798.016724 605.829773,797.909912 578.208191,798.065125 
	C570.126404,798.110474 563.336182,801.109741 559.110901,808.612183 
	C555.339844,815.308167 555.104126,822.702576 556.246582,829.734802 
	C558.179626,841.633667 565.693787,849.613281 579.218140,849.070923 
	C589.019958,848.677795 598.850342,849.008667 608.667969,848.994080 
	C640.779541,848.946350 672.891113,848.888245 705.930786,848.971375 
	C722.258301,848.980835 738.587891,849.126282 754.911499,848.879333 
	C757.998718,848.832703 761.298889,847.688354 764.093201,846.255615 
	C773.030518,841.672791 776.311829,826.783997 774.458679,817.682068 
	C771.684143,804.055420 762.780151,798.155945 753.959839,798.098083 
	C723.309082,797.897095 692.655640,798.111450 661.075256,798.023560 
M694.932007,780.969604 
	C725.550537,780.980103 756.170837,781.154419 786.785889,780.832153 
	C791.619690,780.781250 796.988892,779.449524 801.141235,777.039673 
	C811.622681,770.957031 815.806030,758.606873 811.800964,746.780273 
	C808.452576,736.893066 799.781006,730.056152 787.284729,730.012451 
	C768.813965,729.947815 750.342773,729.977722 731.871765,730.003784 
	C705.915894,730.040405 679.960083,730.110413 653.076294,730.020874 
	C617.111328,730.014465 581.146301,729.981934 545.181458,730.046509 
	C541.938049,730.052307 538.566895,730.232971 535.477539,731.113342 
	C526.757568,733.598267 520.349854,739.203308 518.603577,748.146179 
	C516.966370,756.530640 516.957886,765.010925 523.567261,772.225098 
	C529.526794,778.729980 536.946228,780.884460 545.160583,780.936157 
	C570.301819,781.094604 595.444702,781.019592 620.586914,780.992859 
	C645.059265,780.966797 669.531616,780.888367 694.932007,780.969604 
M531.029846,1087.500000 
	C531.025818,1076.339111 531.005005,1065.178223 531.036194,1054.017334 
	C531.040771,1052.374390 531.045715,1050.665405 531.470947,1049.101074 
	C533.455566,1041.800903 539.919312,1037.643677 547.558838,1036.871460 
	C560.312744,1035.582275 568.572449,1045.023804 568.228943,1057.092163 
	C567.494568,1082.891235 568.004517,1108.725830 568.004700,1134.545776 
	C568.004822,1148.047485 568.004761,1148.047485 581.405090,1148.003418 
	C587.892212,1147.982056 589.029663,1146.868530 589.085449,1140.102173 
	C589.147217,1132.606567 589.356995,1125.099487 589.052612,1117.615845 
	C588.116699,1094.603882 591.015259,1071.535522 587.147522,1048.537354 
	C584.242554,1031.264404 568.504578,1018.143188 552.179504,1016.925537 
	C539.404785,1015.972778 529.333069,1021.142761 520.377502,1029.618530 
	C519.747925,1029.083862 519.221436,1028.685547 518.750549,1028.229614 
	C507.048584,1016.900818 492.929779,1013.757812 478.185089,1019.388306 
	C470.221954,1022.429138 462.643311,1024.343872 454.325256,1024.197388 
	C454.052246,1024.192627 453.773712,1024.499023 453.000244,1024.951172 
	C453.000244,1026.627686 453.000275,1028.587769 453.000275,1030.547852 
	C453.000305,1065.529785 453.000183,1100.511719 453.000183,1135.493652 
	C453.000153,1148.045166 453.000183,1148.045288 465.677094,1148.003784 
	C472.636780,1147.980957 472.999878,1147.628052 473.001221,1140.559082 
	C473.006683,1111.574097 472.993469,1082.588989 473.006592,1053.604004 
	C473.009735,1046.693970 478.718903,1038.508423 485.338135,1037.417480 
	C499.688385,1035.052246 510.499573,1039.540649 510.862640,1057.111938 
	C511.399353,1083.087524 511.001617,1109.082275 511.001740,1135.068848 
	C511.001770,1148.067871 511.001709,1148.067749 523.789429,1148.003418 
	C530.518494,1147.969604 531.018799,1147.509277 531.024414,1140.972900 
	C531.039368,1123.481934 531.029724,1105.990967 531.029846,1087.500000 
M1370.431763,1021.880249 
	C1366.974365,1024.398682 1363.516968,1026.917236 1360.088135,1029.414917 
	C1347.909180,1017.184692 1333.348999,1013.585693 1317.753418,1019.477478 
	C1310.110718,1022.364685 1302.911499,1024.529297 1294.864868,1024.088013 
	C1294.421387,1024.063721 1293.959473,1024.375610 1293.000000,1024.704712 
	C1293.000000,1026.585449 1293.000000,1028.541504 1293.000000,1030.497437 
	C1293.000000,1065.488647 1293.000000,1100.479736 1293.000000,1135.470947 
	C1293.000000,1148.044067 1293.000000,1148.043945 1305.660767,1148.003540 
	C1312.639893,1147.981323 1312.999512,1147.633179 1313.000854,1140.572021 
	C1313.006348,1111.579346 1312.992798,1082.586670 1313.006348,1053.593994 
	C1313.009521,1046.688599 1318.737549,1038.489258 1325.351074,1037.408691 
	C1339.684692,1035.066772 1350.504639,1039.529175 1350.864014,1057.137939 
	C1351.394287,1083.120483 1351.000977,1109.122070 1351.001099,1135.115479 
	C1351.001099,1148.072510 1351.001221,1148.072510 1363.842651,1148.003540 
	C1370.545044,1147.967529 1371.022705,1147.524170 1371.024536,1140.916260 
	C1371.032471,1112.090210 1371.027832,1083.264160 1371.016357,1054.438110 
	C1371.012085,1043.907471 1377.815918,1037.728149 1388.142456,1036.822266 
	C1400.336548,1035.752319 1408.229492,1045.706177 1408.128906,1054.183228 
	C1407.792603,1082.505493 1408.002441,1110.834229 1408.005127,1139.160400 
	C1408.005981,1147.999268 1408.009155,1147.999390 1416.528931,1148.003784 
	C1417.695312,1148.004272 1418.861694,1148.004272 1420.028076,1148.003662 
	C1428.355225,1147.999878 1429.092407,1147.286865 1429.096313,1138.976440 
	C1429.107544,1114.982544 1429.159546,1090.988281 1429.050049,1066.994873 
	C1429.028320,1062.233154 1428.563721,1057.447510 1427.944214,1052.719971 
	C1426.817505,1044.119141 1424.107788,1036.067871 1418.050659,1029.592529 
	C1406.398193,1017.135803 1387.389893,1012.479248 1370.431763,1021.880249 
M426.921478,1025.886353 
	C425.594940,1025.258911 424.301178,1024.192139 422.935394,1024.090088 
	C419.456726,1023.830383 415.945709,1023.978821 412.447937,1024.006226 
	C406.958496,1024.049316 406.501373,1024.667725 407.628998,1030.183228 
	C407.730896,1030.681885 407.507202,1031.247070 407.396851,1032.060547 
	C374.278595,1001.536682 327.887177,1011.529114 306.614929,1037.782227 
	C285.529327,1063.805054 284.359283,1100.744507 308.481567,1128.028809 
	C328.299683,1150.444458 370.740570,1164.182373 407.010010,1132.321777 
	C407.010010,1133.149902 407.019501,1133.914673 407.008575,1134.679321 
	C406.818146,1148.023560 406.817627,1148.023560 419.991699,1148.003784 
	C420.491425,1148.003052 421.000031,1147.941528 421.489410,1148.012573 
	C426.030487,1148.671143 427.092743,1146.459717 427.078552,1142.254150 
	C426.948547,1103.776733 426.990662,1065.298950 426.921478,1025.886353 
M108.899696,1147.890991 
	C109.397179,1147.936523 109.915459,1147.906982 110.389160,1148.038330 
	C134.226257,1154.646973 155.688568,1150.439697 174.519699,1134.052490 
	C175.314011,1133.361328 176.465714,1133.080811 177.772003,1132.455200 
	C177.871597,1133.713623 177.973358,1134.507080 177.991516,1135.302368 
	C178.283386,1148.083618 178.283279,1147.916260 191.023331,1148.094360 
	C195.487808,1148.156616 197.122681,1147.010620 197.099838,1142.235352 
	C196.918930,1104.421997 197.002869,1066.607300 196.985306,1028.793091 
	C196.984634,1027.349243 196.778763,1025.905396 196.653870,1024.269897 
	C190.397552,1024.269897 184.479889,1024.269897 178.323593,1024.269897 
	C178.111069,1026.716797 177.919678,1028.920410 177.676788,1031.716919 
	C175.641907,1030.256958 174.117004,1029.065796 172.498047,1028.020142 
	C168.235779,1025.267456 164.089645,1022.278564 159.610580,1019.930725 
	C152.100021,1015.993713 144.050873,1013.417969 135.476761,1013.819702 
	C127.017677,1014.216064 118.451218,1014.524170 110.179108,1016.138123 
	C100.311127,1018.063599 92.015701,1023.820435 84.505630,1030.315186 
	C75.641479,1037.980835 69.113235,1047.547241 65.101456,1058.523315 
	C61.036381,1069.645386 60.068020,1081.139526 61.886982,1093.021973 
	C64.292786,1108.737915 72.057442,1121.400513 82.995743,1132.293457 
	C90.073708,1139.342041 98.778770,1144.112183 108.899696,1147.890991 
M772.012451,1136.515503 
	C786.651611,1148.336426 803.789917,1152.902100 821.968933,1150.680054 
	C841.041199,1148.348877 856.928162,1138.923340 868.994568,1123.553467 
	C873.341675,1118.016235 873.430237,1117.776611 867.163147,1115.046509 
	C866.252014,1114.649536 865.358887,1114.211548 864.452881,1113.802490 
	C855.790710,1109.891357 854.435303,1109.961670 849.231873,1115.290527 
	C835.733948,1129.114502 819.491821,1133.431763 800.981934,1128.743774 
	C795.649475,1127.393311 790.704102,1124.514648 785.078003,1122.122681 
	C813.258606,1093.955933 840.312256,1066.915527 867.650452,1039.590820 
	C866.127502,1037.498901 865.197083,1035.751343 863.845886,1034.436279 
	C847.870728,1018.888184 829.142090,1011.774353 806.505371,1013.764648 
	C790.127136,1015.204712 776.858826,1022.160889 765.593018,1033.136719 
	C754.392700,1044.048828 747.481262,1057.261108 745.729248,1073.376343 
	C744.307251,1086.456177 746.215149,1098.536377 751.139465,1110.484253 
	C755.474487,1121.002319 763.510132,1128.462402 772.012451,1136.515503 
M715.953491,1138.615356 
	C722.567688,1131.860474 729.181885,1125.105591 736.498291,1117.633545 
	C731.196045,1115.724854 727.136963,1114.794556 723.614258,1112.878174 
	C717.440247,1109.519409 714.076904,1112.777100 709.532837,1116.558350 
	C703.730957,1121.386475 696.935120,1125.469238 689.931763,1128.300293 
	C679.145996,1132.660400 667.816833,1131.013672 657.319336,1126.909546 
	C646.470947,1122.668213 638.221619,1114.771484 632.895813,1104.303955 
	C625.401489,1089.573975 625.156921,1074.358276 632.853638,1059.877930 
	C642.207214,1042.280640 657.049744,1033.462891 677.584167,1033.819458 
	C692.235962,1034.074097 703.459229,1040.068115 713.074890,1050.379639 
	C714.122009,1051.502686 715.986938,1053.082275 717.019836,1052.798950 
	C723.179749,1051.110229 729.206726,1048.936646 735.607483,1046.816650 
	C733.869324,1044.435913 732.880920,1043.120728 731.932617,1041.777222 
	C722.407593,1028.283203 709.373474,1019.229736 693.669739,1015.320190 
	C679.394409,1011.766296 664.655823,1011.979736 650.641541,1017.985474 
	C630.478394,1026.626343 616.476379,1040.934326 609.980835,1062.181763 
	C607.340820,1070.817505 607.592957,1079.580566 607.876038,1088.484131 
	C608.244751,1100.082153 611.848877,1110.582520 618.456177,1119.686157 
	C627.417725,1132.033325 638.280334,1142.445923 653.473694,1147.174683 
	C664.977783,1150.755127 676.471008,1152.289307 688.509521,1149.811523 
	C698.189819,1147.819214 706.879822,1143.817383 715.953491,1138.615356 
M890.000000,1128.499023 
	C890.000000,1130.665283 890.000000,1132.831421 890.000000,1134.997681 
	C890.000000,1148.094849 890.000000,1148.094849 903.213745,1148.003540 
	C909.426697,1147.960693 909.990845,1147.403198 909.993042,1141.023682 
	C910.002319,1114.362427 910.110657,1087.700317 909.899170,1061.040649 
	C909.857727,1055.810913 910.883728,1051.475342 914.225769,1047.344482 
	C923.046997,1036.441162 940.330505,1033.791626 952.172363,1039.587280 
	C965.409607,1046.065796 970.104553,1057.002686 970.029358,1070.971680 
	C969.914490,1092.300049 969.999207,1113.629517 969.999146,1134.958496 
	C969.999146,1148.090576 969.999146,1148.090576 983.180725,1148.003540 
	C989.417664,1147.962402 989.989990,1147.402588 989.992798,1141.056641 
	C990.003113,1117.728027 990.282410,1094.394775 989.898499,1071.072510 
	C989.633484,1054.971191 985.537842,1040.169189 972.587769,1029.029907 
	C958.163086,1016.622253 941.569885,1014.028442 924.025330,1019.277222 
	C915.342957,1021.874817 907.108032,1025.179688 897.839478,1024.045532 
	C895.433289,1023.751099 892.960327,1024.001221 890.000000,1024.001221 
	C890.000000,1058.932861 890.000000,1093.216064 890.000000,1128.499023 
M1267.002075,1067.500000 
	C1267.002075,1053.084351 1267.002075,1038.668701 1267.002075,1024.000488 
	C1261.744141,1024.000488 1257.234741,1024.293945 1252.781006,1023.920776 
	C1247.996704,1023.519836 1246.876465,1025.480103 1246.912598,1029.962891 
	C1247.100464,1053.286865 1246.969604,1076.613281 1247.011963,1099.938843 
	C1247.033813,1111.943604 1240.615112,1119.961792 1231.016724,1125.973511 
	C1225.220337,1129.604004 1218.648438,1128.933960 1212.202759,1129.027710 
	C1198.121582,1129.232544 1184.101807,1115.259033 1184.030273,1100.730957 
	C1183.914551,1077.239258 1183.996582,1053.746704 1183.995361,1030.254517 
	C1183.995239,1028.322510 1183.995361,1026.390503 1183.995361,1024.299805 
	C1177.026245,1024.299805 1170.784912,1024.299805 1163.999390,1024.299805 
	C1163.999390,1031.707886 1163.914429,1038.829834 1164.015625,1045.949097 
	C1164.306030,1066.387329 1163.872192,1086.879272 1165.266357,1107.244385 
	C1166.342896,1122.966064 1175.277344,1135.000000 1189.201050,1142.388306 
	C1195.120728,1145.529541 1201.962402,1147.523926 1208.615845,1148.566406 
	C1221.732910,1150.621704 1234.694946,1148.332764 1245.502319,1140.704834 
	C1260.261597,1130.287598 1267.126953,1115.164551 1267.012573,1096.990356 
	C1266.952881,1087.494019 1267.002075,1077.996826 1267.002075,1067.500000 
M1066.394897,1043.000610 
	C1068.227905,1042.990356 1070.180664,1043.364380 1071.854126,1042.842407 
	C1073.082275,1042.459351 1074.762085,1040.952637 1074.829834,1039.859375 
	C1075.145020,1034.765869 1074.969360,1029.641968 1074.969360,1024.000854 
	C1068.753906,1024.000854 1063.115234,1023.740051 1057.513550,1024.083008 
	C1052.991455,1024.359741 1051.815796,1022.582886 1051.892334,1018.307678 
	C1052.118896,1005.646851 1052.066162,992.977783 1051.861328,980.316162 
	C1051.833008,978.561218 1050.449585,975.402039 1049.491821,975.322510 
	C1043.782471,974.848450 1038.013916,975.088074 1031.997925,975.088074 
	C1031.997925,990.202332 1031.893921,1004.523743 1032.066772,1018.841736 
	C1032.113525,1022.710388 1030.940186,1024.241455 1026.937866,1024.068970 
	C1020.837585,1023.806152 1014.717651,1024.000122 1008.001404,1024.000122 
	C1008.001404,1029.093872 1008.213867,1033.559937 1007.939087,1037.995728 
	C1007.686218,1042.077759 1009.444885,1043.198975 1013.236572,1043.059326 
	C1019.332397,1042.834839 1025.442505,1042.999268 1031.999268,1042.999268 
	C1031.999268,1045.666748 1031.999146,1047.631592 1031.999268,1049.596558 
	C1031.999390,1078.092651 1031.999390,1106.588623 1031.999390,1135.084717 
	C1031.999390,1148.054688 1031.999390,1148.054810 1044.865112,1148.003662 
	C1051.510742,1147.977295 1051.969482,1147.530762 1051.970703,1140.874878 
	C1051.976074,1110.379028 1051.973022,1079.883301 1051.972900,1049.387451 
	C1051.972900,1047.440796 1051.973022,1045.494263 1051.973022,1043.000732 
	C1056.846191,1043.000732 1061.136963,1043.000732 1066.394897,1043.000610 
M242.998245,1132.491943 
	C242.998383,1116.659302 242.990829,1100.826538 243.000549,1084.993896 
	C243.014175,1062.783691 257.212494,1044.948120 278.709534,1040.294800 
	C278.709534,1034.078247 278.709534,1027.827759 278.709534,1021.208435 
	C264.309540,1019.775391 253.926071,1027.580566 242.883972,1036.439087 
	C242.883972,1031.593750 242.883972,1028.030273 242.883972,1024.001465 
	C238.035583,1024.001465 233.710388,1024.304688 229.446609,1023.922485 
	C224.451782,1023.474792 222.851974,1025.136963 222.881241,1030.296631 
	C223.090073,1067.127197 222.992508,1103.959595 222.993866,1140.791382 
	C222.993896,1141.791260 222.957977,1142.794922 223.029785,1143.790283 
	C223.221619,1146.450195 224.305008,1148.114502 227.347839,1148.022461 
	C231.343933,1147.901489 235.379257,1148.283203 239.328049,1147.834717 
	C240.655319,1147.684204 242.637115,1145.773804 242.814560,1144.463745 
	C243.302353,1140.862549 242.992477,1137.153442 242.998245,1132.491943 
M1122.463745,1057.977905 
	C1127.100098,1051.284302 1132.338379,1045.332520 1140.525391,1042.851440 
	C1143.607178,1041.917480 1147.998047,1041.638306 1149.323730,1039.517578 
	C1150.919678,1036.964355 1149.959229,1032.768311 1149.977295,1029.282715 
	C1150.020996,1020.868774 1147.834229,1019.184448 1139.575439,1021.272217 
	C1138.158081,1021.630554 1136.752930,1022.189514 1135.465576,1022.884338 
	C1128.323486,1026.739014 1121.219482,1030.664429 1113.983154,1034.630981 
	C1113.983154,1032.536621 1114.337769,1029.991455 1113.845581,1027.622314 
	C1113.565796,1026.275635 1111.963257,1024.263550 1110.848389,1024.190063 
	C1105.428955,1023.832275 1099.973022,1024.028320 1094.000000,1024.028320 
	C1094.000000,1026.604980 1094.000000,1028.561768 1094.000000,1030.518677 
	C1094.000000,1065.015625 1094.000000,1099.512695 1094.000000,1134.009644 
	C1094.000000,1148.375122 1093.998535,1148.288452 1108.270020,1148.055786 
	C1112.386475,1147.988525 1114.139160,1146.736084 1114.086548,1142.249756 
	C1113.869629,1123.753906 1114.299805,1105.247070 1113.878052,1086.758301 
	C1113.640015,1076.328491 1115.900024,1066.970703 1122.463745,1057.977905 
M156.418701,975.999146 
	C150.087143,975.999329 143.754883,976.053772 137.424347,975.973450 
	C134.815826,975.940369 133.053680,976.436523 131.262100,978.913696 
	C127.994064,983.432190 123.773361,987.251953 120.066292,991.465393 
	C115.996117,996.091614 112.057091,1000.833252 108.060913,1005.524658 
	C108.182671,1006.015320 108.304428,1006.505981 108.426178,1006.996643 
	C113.825317,1006.996643 119.238388,1007.220581 124.616699,1006.885864 
	C126.753174,1006.752930 129.120239,1005.795471 130.855850,1004.505188 
	C140.347488,997.448914 149.690536,990.192078 159.049240,982.958252 
	C161.427216,981.120239 163.676041,979.115051 165.984222,977.186646 
	C165.862366,976.790894 165.740494,976.395081 165.618637,975.999268 
	C162.874878,975.999268 160.131134,975.999268 156.418701,975.999146 
z"/>
    <path fill="#098BCC" opacity="1.000000" stroke="none"
          d="
M439.833069,309.991547 
	C439.891144,316.816986 439.774506,323.649292 440.040863,330.466583 
	C440.772797,349.197693 443.573792,367.538086 450.951752,384.951782 
	C451.139130,385.394073 451.113403,385.926697 451.322021,387.316040 
	C460.928589,377.664520 470.136292,368.413757 479.724915,359.376892 
	C481.995941,362.011932 483.546265,364.831177 485.835266,366.785034 
	C495.474335,375.012695 505.333862,382.982025 515.112732,391.045898 
	C498.469086,407.800720 481.832733,424.562836 465.178894,441.307526 
	C456.035950,450.500336 446.863434,459.663696 437.602203,468.942535 
	C422.519775,441.380798 409.174103,413.430298 400.095337,383.713440 
	C396.403168,371.628204 394.026703,359.046204 392.135193,346.526489 
	C388.797974,324.438232 392.224213,302.587189 396.455811,280.422546 
	C398.390045,280.618530 400.076630,280.960907 401.348633,281.878204 
	C405.652039,284.981445 409.743256,288.378174 414.034943,291.498566 
	C422.592377,297.720520 431.229095,303.833527 439.833069,309.991547 
z"/>
    <path fill="#027EC3" opacity="1.000000" stroke="none"
          d="
M557.115112,585.041382 
	C557.115112,611.832947 557.115112,638.624451 557.115112,665.997192 
	C568.532959,665.997192 579.651001,665.719849 590.748169,666.082458 
	C600.107971,666.388245 608.280273,669.078796 613.172241,678.368103 
	C622.092712,695.306946 609.216980,713.483521 592.788818,713.150879 
	C565.143799,712.591125 537.479187,712.997498 509.012360,712.997498 
	C509.012360,711.201904 509.012543,709.623535 509.012299,708.045105 
	C509.005341,661.882141 509.068970,615.718811 508.866699,569.556702 
	C508.849213,565.563660 510.915649,563.548523 514.008057,561.112915 
	C517.468506,561.459351 520.698364,561.165222 522.779236,562.571411 
	C529.056580,566.813416 534.778809,571.866150 540.926208,576.314270 
	C545.909119,579.919800 550.173035,585.015930 557.115112,585.041382 
z"/>
    <path fill="#666666" opacity="1.000000" stroke="none"
          d="
M531.029907,1088.000000 
	C531.029724,1105.990967 531.039368,1123.481934 531.024414,1140.972900 
	C531.018799,1147.509277 530.518494,1147.969604 523.789429,1148.003418 
	C511.001709,1148.067749 511.001770,1148.067871 511.001740,1135.068848 
	C511.001617,1109.082275 511.399353,1083.087524 510.862640,1057.111938 
	C510.499573,1039.540649 499.688385,1035.052246 485.338135,1037.417480 
	C478.718903,1038.508423 473.009735,1046.693970 473.006592,1053.604004 
	C472.993469,1082.588989 473.006683,1111.574097 473.001221,1140.559082 
	C472.999878,1147.628052 472.636780,1147.980957 465.677094,1148.003784 
	C453.000183,1148.045288 453.000153,1148.045166 453.000183,1135.493652 
	C453.000183,1100.511719 453.000305,1065.529785 453.000275,1030.547852 
	C453.000275,1028.587769 453.000244,1026.627686 453.000244,1024.951172 
	C453.773712,1024.499023 454.052246,1024.192627 454.325256,1024.197388 
	C462.643311,1024.343872 470.221954,1022.429138 478.185089,1019.388306 
	C492.929779,1013.757812 507.048584,1016.900818 518.750549,1028.229614 
	C519.221436,1028.685547 519.747925,1029.083862 520.377502,1029.618530 
	C529.333069,1021.142761 539.404785,1015.972778 552.179504,1016.925537 
	C568.504578,1018.143188 584.242554,1031.264404 587.147522,1048.537354 
	C591.015259,1071.535522 588.116699,1094.603882 589.052612,1117.615845 
	C589.356995,1125.099487 589.147217,1132.606567 589.085449,1140.102173 
	C589.029663,1146.868530 587.892212,1147.982056 581.405090,1148.003418 
	C568.004761,1148.047485 568.004822,1148.047485 568.004700,1134.545776 
	C568.004517,1108.725830 567.494568,1082.891235 568.228943,1057.092163 
	C568.572449,1045.023804 560.312744,1035.582275 547.558838,1036.871460 
	C539.919312,1037.643677 533.455566,1041.800903 531.470947,1049.101074 
	C531.045715,1050.665405 531.040771,1052.374390 531.036194,1054.017334 
	C531.005005,1065.178223 531.025818,1076.339111 531.029907,1088.000000 
z"/>
    <path fill="#666666" opacity="1.000000" stroke="none"
          d="
M1370.744629,1021.668823 
	C1387.389893,1012.479248 1406.398193,1017.135803 1418.050659,1029.592529 
	C1424.107788,1036.067871 1426.817505,1044.119141 1427.944214,1052.719971 
	C1428.563721,1057.447510 1429.028320,1062.233154 1429.050049,1066.994873 
	C1429.159546,1090.988281 1429.107544,1114.982544 1429.096313,1138.976440 
	C1429.092407,1147.286865 1428.355225,1147.999878 1420.028076,1148.003662 
	C1418.861694,1148.004272 1417.695312,1148.004272 1416.528931,1148.003784 
	C1408.009155,1147.999390 1408.005981,1147.999268 1408.005127,1139.160400 
	C1408.002441,1110.834229 1407.792603,1082.505493 1408.128906,1054.183228 
	C1408.229492,1045.706177 1400.336548,1035.752319 1388.142456,1036.822266 
	C1377.815918,1037.728149 1371.012085,1043.907471 1371.016357,1054.438110 
	C1371.027832,1083.264160 1371.032471,1112.090210 1371.024536,1140.916260 
	C1371.022705,1147.524170 1370.545044,1147.967529 1363.842651,1148.003540 
	C1351.001221,1148.072510 1351.001099,1148.072510 1351.001099,1135.115479 
	C1351.000977,1109.122070 1351.394287,1083.120483 1350.864014,1057.137939 
	C1350.504639,1039.529175 1339.684692,1035.066772 1325.351074,1037.408691 
	C1318.737549,1038.489258 1313.009521,1046.688599 1313.006348,1053.593994 
	C1312.992798,1082.586670 1313.006348,1111.579346 1313.000854,1140.572021 
	C1312.999512,1147.633179 1312.639893,1147.981323 1305.660767,1148.003540 
	C1293.000000,1148.043945 1293.000000,1148.044067 1293.000000,1135.470947 
	C1293.000000,1100.479736 1293.000000,1065.488647 1293.000000,1030.497437 
	C1293.000000,1028.541504 1293.000000,1026.585449 1293.000000,1024.704712 
	C1293.959473,1024.375610 1294.421387,1024.063721 1294.864868,1024.088013 
	C1302.911499,1024.529297 1310.110718,1022.364685 1317.753418,1019.477478 
	C1333.348999,1013.585693 1347.909180,1017.184692 1360.088135,1029.414917 
	C1363.516968,1026.917236 1366.974365,1024.398682 1370.744629,1021.668823 
z"/>
    <path fill="#666666" opacity="1.000000" stroke="none"
          d="
M426.952026,1026.353760 
	C426.990662,1065.298950 426.948547,1103.776733 427.078552,1142.254150 
	C427.092743,1146.459717 426.030487,1148.671143 421.489410,1148.012573 
	C421.000031,1147.941528 420.491425,1148.003052 419.991699,1148.003784 
	C406.817627,1148.023560 406.818146,1148.023560 407.008575,1134.679321 
	C407.019501,1133.914673 407.010010,1133.149902 407.010010,1132.321777 
	C370.740570,1164.182373 328.299683,1150.444458 308.481567,1128.028809 
	C284.359283,1100.744507 285.529327,1063.805054 306.614929,1037.782227 
	C327.887177,1011.529114 374.278595,1001.536682 407.396851,1032.060547 
	C407.507202,1031.247070 407.730896,1030.681885 407.628998,1030.183228 
	C406.501373,1024.667725 406.958496,1024.049316 412.447937,1024.006226 
	C415.945709,1023.978821 419.456726,1023.830383 422.935394,1024.090088 
	C424.301178,1024.192139 425.594940,1025.258911 426.952026,1026.353760 
M407.010742,1074.727295 
	C406.159454,1059.106689 396.924744,1048.713867 384.853119,1040.556274 
	C376.877289,1035.166626 367.705627,1033.911377 357.929840,1033.813477 
	C332.159607,1033.555176 311.614838,1055.755493 310.982971,1080.610962 
	C310.546600,1097.775635 317.736206,1111.145996 331.058929,1121.475830 
	C339.890503,1128.323364 350.423279,1131.114136 361.139404,1130.698730 
	C372.386047,1130.262695 383.024353,1126.360718 391.754700,1118.617554 
	C398.829315,1112.343018 404.368073,1104.916138 405.907196,1095.461914 
	C406.962524,1088.979614 406.688782,1082.280884 407.010742,1074.727295 
z"/>
    <path fill="#666666" opacity="1.000000" stroke="none"
          d="
M108.525490,1147.740723 
	C98.778770,1144.112183 90.073708,1139.342041 82.995743,1132.293457 
	C72.057442,1121.400513 64.292786,1108.737915 61.886982,1093.021973 
	C60.068020,1081.139526 61.036381,1069.645386 65.101456,1058.523315 
	C69.113235,1047.547241 75.641479,1037.980835 84.505630,1030.315186 
	C92.015701,1023.820435 100.311127,1018.063599 110.179108,1016.138123 
	C118.451218,1014.524170 127.017677,1014.216064 135.476761,1013.819702 
	C144.050873,1013.417969 152.100021,1015.993713 159.610580,1019.930725 
	C164.089645,1022.278564 168.235779,1025.267456 172.498047,1028.020142 
	C174.117004,1029.065796 175.641907,1030.256958 177.676788,1031.716919 
	C177.919678,1028.920410 178.111069,1026.716797 178.323593,1024.269897 
	C184.479889,1024.269897 190.397552,1024.269897 196.653870,1024.269897 
	C196.778763,1025.905396 196.984634,1027.349243 196.985306,1028.793091 
	C197.002869,1066.607300 196.918930,1104.421997 197.099838,1142.235352 
	C197.122681,1147.010620 195.487808,1148.156616 191.023331,1148.094360 
	C178.283279,1147.916260 178.283386,1148.083618 177.991516,1135.302368 
	C177.973358,1134.507080 177.871597,1133.713623 177.772003,1132.455200 
	C176.465714,1133.080811 175.314011,1133.361328 174.519699,1134.052490 
	C155.688568,1150.439697 134.226257,1154.646973 110.389160,1148.038330 
	C109.915459,1147.906982 109.397179,1147.936523 108.525490,1147.740723 
M178.000061,1088.252075 
	C178.501663,1076.085083 177.494492,1064.615601 169.838669,1054.032227 
	C158.830902,1038.815308 137.421967,1029.893555 119.193596,1034.377563 
	C108.240028,1037.072021 99.348343,1043.085449 92.037842,1051.513306 
	C83.967308,1060.817505 80.724220,1072.166870 81.262878,1083.978760 
	C81.924538,1098.487793 88.110931,1110.906616 99.734207,1120.275879 
	C109.315117,1127.999023 120.669342,1131.262573 132.390091,1130.619385 
	C142.513351,1130.063965 152.520905,1126.932129 160.627335,1119.733032 
	C169.924393,1111.476562 176.651337,1101.894897 178.000061,1088.252075 
z"/>
    <path fill="#666666" opacity="1.000000" stroke="none"
          d="
M771.758789,1136.259766 
	C763.510132,1128.462402 755.474487,1121.002319 751.139465,1110.484253 
	C746.215149,1098.536377 744.307251,1086.456177 745.729248,1073.376343 
	C747.481262,1057.261108 754.392700,1044.048828 765.593018,1033.136719 
	C776.858826,1022.160889 790.127136,1015.204712 806.505371,1013.764648 
	C829.142090,1011.774353 847.870728,1018.888184 863.845886,1034.436279 
	C865.197083,1035.751343 866.127502,1037.498901 867.650452,1039.590820 
	C840.312256,1066.915527 813.258606,1093.955933 785.078003,1122.122681 
	C790.704102,1124.514648 795.649475,1127.393311 800.981934,1128.743774 
	C819.491821,1133.431763 835.733948,1129.114502 849.231873,1115.290527 
	C854.435303,1109.961670 855.790710,1109.891357 864.452881,1113.802490 
	C865.358887,1114.211548 866.252014,1114.649536 867.163147,1115.046509 
	C873.430237,1117.776611 873.341675,1118.016235 868.994568,1123.553467 
	C856.928162,1138.923340 841.041199,1148.348877 821.968933,1150.680054 
	C803.789917,1152.902100 786.651611,1148.336426 771.758789,1136.259766 
M820.999146,1057.499634 
	C826.721130,1051.978516 832.443176,1046.457397 838.206970,1040.896118 
	C825.626099,1030.038452 795.140442,1030.861328 778.944031,1048.077637 
	C761.495239,1066.625244 762.804810,1095.424316 772.864746,1105.680664 
	C788.743469,1089.785889 804.620911,1073.892456 820.999146,1057.499634 
z"/>
    <path fill="#F07A27" opacity="1.000000" stroke="none"
          d="
M694.003967,780.832886 
	C669.531616,780.888367 645.059265,780.966797 620.586914,780.992859 
	C595.444702,781.019592 570.301819,781.094604 545.160583,780.936157 
	C536.946228,780.884460 529.526794,778.729980 523.567261,772.225098 
	C516.957886,765.010925 516.966370,756.530640 518.603577,748.146179 
	C520.349854,739.203308 526.757568,733.598267 535.477539,731.113342 
	C538.566895,730.232971 541.938049,730.052307 545.181458,730.046509 
	C581.146301,729.981934 617.111328,730.014465 653.625244,730.419678 
	C655.245239,732.491394 656.115173,734.343079 657.418823,735.809021 
	C669.091248,748.935059 680.899170,761.941345 692.475220,775.151184 
	C693.635376,776.475037 693.524780,778.912354 694.003967,780.832886 
z"/>
    <path fill="#F18525" opacity="1.000000" stroke="none"
          d="
M694.468018,780.901245 
	C693.524780,778.912354 693.635376,776.475037 692.475220,775.151184 
	C680.899170,761.941345 669.091248,748.935059 657.418823,735.809021 
	C656.115173,734.343079 655.245239,732.491394 654.089233,730.492371 
	C679.960083,730.110413 705.915894,730.040405 731.871765,730.003784 
	C750.342773,729.977722 768.813965,729.947815 787.284729,730.012451 
	C799.781006,730.056152 808.452576,736.893066 811.800964,746.780273 
	C815.806030,758.606873 811.622681,770.957031 801.141235,777.039673 
	C796.988892,779.449524 791.619690,780.781250 786.785889,780.832153 
	C756.170837,781.154419 725.550537,780.980103 694.468018,780.901245 
z"/>
    <path fill="#0788CA" opacity="1.000000" stroke="none"
          d="
M821.814453,669.890381 
	C821.814453,684.020264 821.814453,698.150085 821.814453,713.000000 
	C819.979004,713.000000 818.224121,713.000244 816.469238,713.000000 
	C791.327820,712.997131 766.186340,713.001221 741.044922,712.987732 
	C729.733215,712.981689 720.746460,703.856140 719.919434,692.631042 
	C718.604370,674.782227 730.279358,666.310303 746.022034,666.032532 
	C755.144287,665.871582 764.271667,666.003235 774.019714,666.003235 
	C774.019714,635.708069 774.019714,605.801147 774.324097,575.680298 
	C790.357056,606.941101 806.085754,638.415771 821.814453,669.890381 
z"/>
    <path fill="#F07A27" opacity="1.000000" stroke="none"
          d="
M534.105835,419.646881 
	C551.385864,402.607849 568.631226,385.533447 585.960266,368.544434 
	C594.860657,359.818695 603.920532,351.255737 612.890076,342.600281 
	C623.038452,332.807312 633.166382,322.993073 643.771057,313.368317 
	C651.179138,327.724030 658.119385,341.899536 665.059692,356.075073 
	C653.577637,367.351440 642.066772,378.598694 630.622864,389.913666 
	C621.738281,398.698090 612.933350,407.563049 604.100342,416.399597 
	C593.973938,426.529968 583.855652,436.668488 573.050415,446.892883 
	C570.347778,445.928650 568.148560,445.118591 566.338989,443.781281 
	C555.544739,435.803986 544.840393,427.705017 534.105835,419.646881 
z"/>
    <path fill="#189FDA" opacity="1.000000" stroke="none"
          d="
M819.891602,254.953110 
	C834.710571,240.020462 849.529541,225.087799 864.638306,210.395477 
	C864.511841,213.895905 862.149231,216.809372 864.930969,220.468567 
	C876.243530,235.349655 887.231628,250.477371 898.341797,265.512390 
	C906.218628,276.171906 914.152771,286.789764 921.942932,297.512207 
	C924.054199,300.418152 926.137573,300.932587 928.834229,298.505920 
	C929.222290,309.547180 930.325500,320.621887 929.810852,331.620911 
	C929.216736,344.319153 927.195984,356.950653 925.070679,369.811646 
	C921.803772,368.352692 918.532043,367.232666 916.838806,364.944550 
	C907.279907,352.026978 898.055359,338.860352 888.821167,325.705353 
	C886.411621,322.272736 884.374512,318.578674 882.166321,315.004700 
	C879.509155,300.063965 876.851990,285.123230 874.194824,270.182465 
	C873.594727,270.147888 872.994690,270.113312 872.394592,270.078766 
	C864.819641,277.664917 857.244751,285.251068 849.100952,292.746338 
	C846.000488,289.914795 843.186340,287.382019 840.989197,284.395294 
	C833.835266,274.670532 826.906860,264.779907 819.891602,254.953110 
z"/>
    <path fill="#EF7827" opacity="1.000000" stroke="none"
          d="
M705.002686,848.834045 
	C672.891113,848.888245 640.779541,848.946350 608.667969,848.994080 
	C598.850342,849.008667 589.019958,848.677795 579.218140,849.070923 
	C565.693787,849.613281 558.179626,841.633667 556.246582,829.734802 
	C555.104126,822.702576 555.339844,815.308167 559.110901,808.612183 
	C563.336182,801.109741 570.126404,798.110474 578.208191,798.065125 
	C605.829773,797.909912 633.452759,798.016724 661.615356,798.429321 
	C662.760071,800.007690 663.155212,801.364807 664.001160,802.324707 
	C674.845154,814.631531 685.762939,826.873291 696.639465,839.151611 
	C699.467163,842.343689 702.217041,845.604675 705.002686,848.834045 
z"/>
    <path fill="#666666" opacity="1.000000" stroke="none"
          d="
M715.637939,1138.801270 
	C706.879822,1143.817383 698.189819,1147.819214 688.509521,1149.811523 
	C676.471008,1152.289307 664.977783,1150.755127 653.473694,1147.174683 
	C638.280334,1142.445923 627.417725,1132.033325 618.456177,1119.686157 
	C611.848877,1110.582520 608.244751,1100.082153 607.876038,1088.484131 
	C607.592957,1079.580566 607.340820,1070.817505 609.980835,1062.181763 
	C616.476379,1040.934326 630.478394,1026.626343 650.641541,1017.985474 
	C664.655823,1011.979736 679.394409,1011.766296 693.669739,1015.320190 
	C709.373474,1019.229736 722.407593,1028.283203 731.932617,1041.777222 
	C732.880920,1043.120728 733.869324,1044.435913 735.607483,1046.816650 
	C729.206726,1048.936646 723.179749,1051.110229 717.019836,1052.798950 
	C715.986938,1053.082275 714.122009,1051.502686 713.074890,1050.379639 
	C703.459229,1040.068115 692.235962,1034.074097 677.584167,1033.819458 
	C657.049744,1033.462891 642.207214,1042.280640 632.853638,1059.877930 
	C625.156921,1074.358276 625.401489,1089.573975 632.895813,1104.303955 
	C638.221619,1114.771484 646.470947,1122.668213 657.319336,1126.909546 
	C667.816833,1131.013672 679.145996,1132.660400 689.931763,1128.300293 
	C696.935120,1125.469238 703.730957,1121.386475 709.532837,1116.558350 
	C714.076904,1112.777100 717.440247,1109.519409 723.614258,1112.878174 
	C727.136963,1114.794556 731.196045,1115.724854 736.498291,1117.633545 
	C729.181885,1125.105591 722.567688,1131.860474 715.637939,1138.801270 
z"/>
    <path fill="#666666" opacity="1.000000" stroke="none"
          d="
M890.000000,1127.999268 
	C890.000000,1093.216064 890.000000,1058.932861 890.000000,1024.001221 
	C892.960327,1024.001221 895.433289,1023.751099 897.839478,1024.045532 
	C907.108032,1025.179688 915.342957,1021.874817 924.025330,1019.277222 
	C941.569885,1014.028442 958.163086,1016.622253 972.587769,1029.029907 
	C985.537842,1040.169189 989.633484,1054.971191 989.898499,1071.072510 
	C990.282410,1094.394775 990.003113,1117.728027 989.992798,1141.056641 
	C989.989990,1147.402588 989.417664,1147.962402 983.180725,1148.003540 
	C969.999146,1148.090576 969.999146,1148.090576 969.999146,1134.958496 
	C969.999207,1113.629517 969.914490,1092.300049 970.029358,1070.971680 
	C970.104553,1057.002686 965.409607,1046.065796 952.172363,1039.587280 
	C940.330505,1033.791626 923.046997,1036.441162 914.225769,1047.344482 
	C910.883728,1051.475342 909.857727,1055.810913 909.899170,1061.040649 
	C910.110657,1087.700317 910.002319,1114.362427 909.993042,1141.023682 
	C909.990845,1147.403198 909.426697,1147.960693 903.213745,1148.003540 
	C890.000000,1148.094849 890.000000,1148.094849 890.000000,1134.997681 
	C890.000000,1132.831421 890.000000,1130.665283 890.000000,1127.999268 
z"/>
    <path fill="#EE6E27" opacity="1.000000" stroke="none"
          d="
M533.843750,419.806732 
	C544.840393,427.705017 555.544739,435.803986 566.338989,443.781281 
	C568.148560,445.118591 570.347778,445.928650 572.741943,447.015930 
	C557.710388,462.566986 542.322998,478.103424 526.892090,493.596588 
	C511.510712,509.040009 496.085815,524.440063 480.468323,540.071045 
	C471.545532,526.102051 462.802246,512.414062 453.923431,498.513855 
	C480.563812,472.245026 507.072723,446.105804 533.843750,419.806732 
z"/>
    <path fill="#0788CA" opacity="1.000000" stroke="none"
          d="
M557.414185,584.900513 
	C550.173035,585.015930 545.909119,579.919800 540.926208,576.314270 
	C534.778809,571.866150 529.056580,566.813416 522.779236,562.571411 
	C520.698364,561.165222 517.468506,561.459351 514.322998,560.968079 
	C526.161377,548.567200 538.413574,536.147278 550.726868,523.788269 
	C566.216675,508.240875 581.756409,492.743317 597.986633,477.071594 
	C604.309753,474.878021 608.709290,476.833160 612.531738,480.986115 
	C613.647095,482.197906 615.008972,483.199738 616.330566,484.201965 
	C624.223450,490.187714 632.137756,496.145386 640.044800,502.112488 
	C630.945068,511.327881 621.883911,520.581848 612.737366,529.750610 
	C594.420715,548.111633 576.057373,566.425964 557.414185,584.900513 
z"/>
    <path fill="#1095D2" opacity="1.000000" stroke="none"
          d="
M439.914886,309.578918 
	C431.229095,303.833527 422.592377,297.720520 414.034943,291.498566 
	C409.743256,288.378174 405.652039,284.981445 401.348633,281.878204 
	C400.076630,280.960907 398.390045,280.618530 396.523438,280.003113 
	C400.090118,267.302185 403.506622,254.419937 408.079254,241.962036 
	C415.939117,220.548080 427.826843,201.279205 441.437378,183.050781 
	C443.383026,180.444977 445.323730,177.835464 447.872559,175.265961 
	C452.252594,178.295990 455.930420,181.420135 459.820679,184.252533 
	C468.528442,190.592438 477.341919,196.787079 486.112366,203.040894 
	C482.080566,208.526047 477.977325,213.960327 474.029663,219.505417 
	C459.144318,240.414001 449.191376,263.561615 443.331665,288.464264 
	C441.734741,295.250732 441.082489,302.259521 439.914886,309.578918 
z"/>
    <path fill="#666666" opacity="1.000000" stroke="none"
          d="
M1267.002075,1068.000000 
	C1267.002075,1077.996826 1266.952881,1087.494019 1267.012573,1096.990356 
	C1267.126953,1115.164551 1260.261597,1130.287598 1245.502319,1140.704834 
	C1234.694946,1148.332764 1221.732910,1150.621704 1208.615845,1148.566406 
	C1201.962402,1147.523926 1195.120728,1145.529541 1189.201050,1142.388306 
	C1175.277344,1135.000000 1166.342896,1122.966064 1165.266357,1107.244385 
	C1163.872192,1086.879272 1164.306030,1066.387329 1164.015625,1045.949097 
	C1163.914429,1038.829834 1163.999390,1031.707886 1163.999390,1024.299805 
	C1170.784912,1024.299805 1177.026245,1024.299805 1183.995361,1024.299805 
	C1183.995361,1026.390503 1183.995239,1028.322510 1183.995361,1030.254517 
	C1183.996582,1053.746704 1183.914551,1077.239258 1184.030273,1100.730957 
	C1184.101807,1115.259033 1198.121582,1129.232544 1212.202759,1129.027710 
	C1218.648438,1128.933960 1225.220337,1129.604004 1231.016724,1125.973511 
	C1240.615112,1119.961792 1247.033813,1111.943604 1247.011963,1099.938843 
	C1246.969604,1076.613281 1247.100464,1053.286865 1246.912598,1029.962891 
	C1246.876465,1025.480103 1247.996704,1023.519836 1252.781006,1023.920776 
	C1257.234741,1024.293945 1261.744141,1024.000488 1267.002075,1024.000488 
	C1267.002075,1038.668701 1267.002075,1053.084351 1267.002075,1068.000000 
z"/>
    <path fill="#0E92D0" opacity="1.000000" stroke="none"
          d="
M640.348877,501.967224 
	C632.137756,496.145386 624.223450,490.187714 616.330566,484.201965 
	C615.008972,483.199738 613.647095,482.197906 612.531738,480.986115 
	C608.709290,476.833160 604.309753,474.878021 598.290100,476.939484 
	C609.330566,465.396637 620.748413,453.802032 632.236023,442.277069 
	C649.246887,425.210876 666.307373,408.194153 683.676880,391.409485 
	C691.244812,406.368622 698.482544,421.074615 705.720276,435.780640 
	C704.910522,436.925842 704.246155,438.216095 703.269531,439.194824 
	C682.418396,460.091553 661.532288,480.953369 640.348877,501.967224 
z"/>
    <path fill="#06A1DC" opacity="1.000000" stroke="none"
          d="
M653.994324,77.166245 
	C677.766907,75.952576 701.194397,78.230858 724.303955,83.959625 
	C744.783325,89.036400 764.869263,95.192848 783.689880,104.945389 
	C784.399658,105.313194 785.066101,105.764671 785.698975,106.144882 
	C773.831787,117.910439 762.055786,129.585510 750.797424,140.747437 
	C734.481934,136.271713 717.994995,131.712616 701.480042,127.257408 
	C698.985718,126.584518 696.360840,126.395706 693.059631,125.729225 
	C690.843811,125.329208 689.364746,125.182953 687.885620,125.036690 
	C687.885620,125.036690 687.428345,124.985397 687.085938,124.601234 
	C681.425537,121.667526 678.809509,116.642517 675.569458,112.150917 
	C668.790222,102.752914 661.768799,93.525909 655.173950,84.002159 
	C653.979980,82.277985 654.347595,79.472527 653.994324,77.166245 
z"/>
    <path fill="#189FDA" opacity="1.000000" stroke="none"
          d="
M486.416290,202.901688 
	C477.341919,196.787079 468.528442,190.592438 459.820679,184.252533 
	C455.930420,181.420135 452.252594,178.295990 448.186432,175.128784 
	C468.766968,149.862778 493.979492,129.926285 521.735107,113.070572 
	C526.295227,110.301239 531.346313,108.340225 536.785217,106.220757 
	C544.614197,119.994041 551.828430,133.552231 559.042664,147.110413 
	C545.103088,156.057663 530.558228,164.208252 517.410095,174.197266 
	C506.337250,182.609604 496.888092,193.159042 486.416290,202.901688 
z"/>
    <path fill="#F28E25" opacity="1.000000" stroke="none"
          d="
M763.882446,194.960205 
	C771.601440,186.791336 779.320435,178.622437 787.530151,169.934265 
	C781.676941,164.556259 774.888245,158.318710 768.099548,152.081177 
	C768.343140,151.499329 768.586792,150.917465 768.830444,150.335617 
	C784.952698,144.886734 801.075012,139.437836 817.518982,134.278381 
	C817.434204,136.739456 815.904175,139.711716 816.793579,140.959778 
	C826.498413,154.577866 836.777039,167.788010 846.440613,181.434082 
	C849.269470,185.428726 851.406372,187.786453 855.833496,184.002747 
	C851.427612,197.289398 847.021667,210.576050 842.599182,223.912689 
	C836.325134,217.217468 830.149841,210.627609 823.541321,203.575455 
	C812.376160,214.520447 802.518799,224.183380 792.368042,233.597260 
	C793.795532,228.943024 793.948425,224.997574 790.553650,220.943207 
	C784.820679,214.096283 779.298828,207.025787 774.279053,199.647324 
	C771.533020,195.611069 768.904175,193.109573 763.882446,194.960205 
z"/>
    <path fill="#30BDED" opacity="1.000000" stroke="none"
          d="
M821.878052,669.433960 
	C806.085754,638.415771 790.357056,606.941101 774.401672,575.215027 
	C772.064148,566.664307 778.518982,561.670959 782.013367,555.755493 
	C789.260132,543.487793 797.233704,531.649353 805.217163,519.155151 
	C805.720642,518.455688 805.871399,518.208679 805.978271,517.934937 
	C807.087891,516.045959 808.197510,514.157043 809.979736,512.149170 
	C812.412659,513.129639 814.676025,513.846924 815.849426,515.392029 
	C822.145569,523.682068 828.142700,532.198608 834.302490,540.593323 
	C836.734436,543.907776 839.319763,547.109680 841.835327,550.362793 
	C841.577698,550.712097 841.320068,551.061340 840.776245,551.868774 
	C840.292236,552.549805 840.137390,552.799377 840.025635,553.075684 
	C840.025635,553.075684 839.936096,553.558472 839.693481,553.933899 
	C839.260742,554.522156 839.116882,554.762512 839.019226,555.030518 
	C834.392212,562.464600 829.982483,570.047363 825.040894,577.266113 
	C822.780762,580.567871 821.888977,583.766602 821.905396,587.692566 
	C822.018982,614.787170 821.951172,641.882446 821.878052,669.433960 
z"/>
    <path fill="#F08026" opacity="1.000000" stroke="none"
          d="
M705.466736,848.902710 
	C702.217041,845.604675 699.467163,842.343689 696.639465,839.151611 
	C685.762939,826.873291 674.845154,814.631531 664.001160,802.324707 
	C663.155212,801.364807 662.760071,800.007690 662.079346,798.501465 
	C692.655640,798.111450 723.309082,797.897095 753.959839,798.098083 
	C762.780151,798.155945 771.684143,804.055420 774.458679,817.682068 
	C776.311829,826.783997 773.030518,841.672791 764.093201,846.255615 
	C761.298889,847.688354 757.998718,848.832703 754.911499,848.879333 
	C738.587891,849.126282 722.258301,848.980835 705.466736,848.902710 
z"/>
    <path fill="#29B5E8" opacity="1.000000" stroke="none"
          d="
M603.931641,233.891266 
	C609.763245,228.454971 615.594971,223.018723 621.486145,217.527008 
	C614.750000,210.851822 608.805847,204.961487 602.051514,198.268234 
	C614.848328,193.931015 626.524292,189.973709 638.882812,186.190735 
	C641.969666,187.604385 645.119019,188.256012 646.643616,190.189026 
	C652.046021,197.038422 657.285461,204.083572 661.862915,211.501190 
	C669.499451,223.875900 682.718140,232.975815 684.109253,249.040527 
	C684.061646,249.482635 684.014038,249.924759 683.735046,250.853928 
	C683.303955,251.567490 683.148254,251.821030 683.036621,252.101593 
	C680.927246,258.560303 678.817810,265.019012 676.676147,271.576324 
	C669.728516,264.550232 662.758240,257.501282 655.420288,250.080490 
	C645.431458,260.066071 636.045349,269.449097 626.274780,278.604279 
	C625.086487,276.564667 624.351318,274.718658 623.467773,272.946625 
	C616.972473,259.919861 610.447388,246.907944 603.931641,233.891266 
z"/>
    <path fill="#F7A621" opacity="1.000000" stroke="none"
          d="
M665.369324,355.942719 
	C658.119385,341.899536 651.179138,327.724030 644.076660,313.231934 
	C657.144043,299.907379 670.389709,286.915558 683.596558,273.884430 
	C689.862305,267.701996 696.054138,261.444611 702.963440,255.071548 
	C710.610779,252.691910 711.212769,252.962845 715.196960,258.892639 
	C717.560181,262.409973 720.797913,265.481201 722.508118,269.265594 
	C725.838318,276.635132 734.901001,281.236023 733.111389,291.046112 
	C721.974976,301.635620 710.794922,312.179810 699.720093,322.833344 
	C693.956299,328.377899 688.439514,334.178650 682.698669,339.747681 
	C677.100037,345.178802 671.358093,350.462158 665.369324,355.942719 
z"/>
    <path fill="#666666" opacity="1.000000" stroke="none"
          d="
M1065.911377,1043.000732 
	C1061.136963,1043.000732 1056.846191,1043.000732 1051.973022,1043.000732 
	C1051.973022,1045.494263 1051.972900,1047.440796 1051.972900,1049.387451 
	C1051.973022,1079.883301 1051.976074,1110.379028 1051.970703,1140.874878 
	C1051.969482,1147.530762 1051.510742,1147.977295 1044.865112,1148.003662 
	C1031.999390,1148.054810 1031.999390,1148.054688 1031.999390,1135.084717 
	C1031.999390,1106.588623 1031.999390,1078.092651 1031.999268,1049.596558 
	C1031.999146,1047.631592 1031.999268,1045.666748 1031.999268,1042.999268 
	C1025.442505,1042.999268 1019.332397,1042.834839 1013.236572,1043.059326 
	C1009.444885,1043.198975 1007.686218,1042.077759 1007.939087,1037.995728 
	C1008.213867,1033.559937 1008.001404,1029.093872 1008.001404,1024.000122 
	C1014.717651,1024.000122 1020.837585,1023.806152 1026.937866,1024.068970 
	C1030.940186,1024.241455 1032.113525,1022.710388 1032.066772,1018.841736 
	C1031.893921,1004.523743 1031.997925,990.202332 1031.997925,975.088074 
	C1038.013916,975.088074 1043.782471,974.848450 1049.491821,975.322510 
	C1050.449585,975.402039 1051.833008,978.561218 1051.861328,980.316162 
	C1052.066162,992.977783 1052.118896,1005.646851 1051.892334,1018.307678 
	C1051.815796,1022.582886 1052.991455,1024.359741 1057.513550,1024.083008 
	C1063.115234,1023.740051 1068.753906,1024.000854 1074.969360,1024.000854 
	C1074.969360,1029.641968 1075.145020,1034.765869 1074.829834,1039.859375 
	C1074.762085,1040.952637 1073.082275,1042.459351 1071.854126,1042.842407 
	C1070.180664,1043.364380 1068.227905,1042.990356 1065.911377,1043.000732 
z"/>
    <path fill="#1399D5" opacity="1.000000" stroke="none"
          d="
M603.626892,234.031433 
	C610.447388,246.907944 616.972473,259.919861 623.467773,272.946625 
	C624.351318,274.718658 625.086487,276.564667 625.964233,278.735840 
	C608.930542,296.320496 591.822937,313.545746 574.056152,330.831848 
	C568.239197,327.414764 562.914978,324.156860 557.962830,320.407562 
	C550.489319,314.749359 543.275391,308.748199 535.951172,302.892822 
	C558.408142,279.985718 580.865112,257.078644 603.626892,234.031433 
z"/>
    <path fill="#F59B24" opacity="1.000000" stroke="none"
          d="
M733.417114,290.916321 
	C734.901001,281.236023 725.838318,276.635132 722.508118,269.265594 
	C720.797913,265.481201 717.560181,262.409973 715.196960,258.892639 
	C711.212769,252.962845 710.610779,252.691910 703.267944,254.940094 
	C712.454163,245.608109 722.065796,236.304337 731.573181,226.895340 
	C742.190002,216.388519 752.712219,205.786194 763.578979,195.092789 
	C768.904175,193.109573 771.533020,195.611069 774.279053,199.647324 
	C779.298828,207.025787 784.820679,214.096283 790.553650,220.943207 
	C793.948425,224.997574 793.795532,228.943024 792.058350,233.732300 
	C780.235474,245.376236 768.365173,256.570129 756.645203,267.919281 
	C748.892822,275.426453 741.356079,283.156342 733.417114,290.916321 
z"/>
    <path fill="#0E92D0" opacity="1.000000" stroke="none"
          d="
M535.643433,303.030090 
	C543.275391,308.748199 550.489319,314.749359 557.962830,320.407562 
	C562.914978,324.156860 568.239197,327.414764 573.754333,330.968689 
	C554.646179,350.953247 535.180542,370.861725 515.413818,390.908051 
	C505.333862,382.982025 495.474335,375.012695 485.835266,366.785034 
	C483.546265,364.831177 481.995941,362.011932 480.032166,359.237000 
	C498.417603,340.311279 516.876648,321.739319 535.643433,303.030090 
z"/>
    <path fill="#0788CA" opacity="1.000000" stroke="none"
          d="
M965.836914,107.043221 
	C960.260071,101.109497 954.683228,95.175804 948.976807,89.104263 
	C958.289978,85.891418 968.265503,82.450096 978.652222,79.415375 
	C979.243652,80.458099 979.264221,81.209137 979.627380,81.713531 
	C987.652710,92.859497 995.673767,104.009048 1003.785583,115.092110 
	C1010.044556,123.643745 1016.344666,132.168747 1022.828491,140.549255 
	C1024.014038,142.081619 1026.170288,142.862885 1027.878418,143.990875 
	C1025.942139,150.247391 1024.005859,156.503891 1021.889954,163.341080 
	C1014.611389,155.767197 1007.851379,148.732910 1000.868225,141.466400 
	C991.788879,150.619492 983.276733,159.200806 974.102661,167.874878 
	C971.586792,166.391235 969.393982,165.075836 967.941528,163.190155 
	C963.376038,157.262878 958.936462,151.224442 954.740723,145.030853 
	C951.186951,139.785004 945.959717,135.205307 946.910767,127.869202 
	C946.910767,127.869202 946.950867,127.961555 947.111206,127.807770 
	C947.512268,127.387985 947.752930,127.121986 947.993591,126.855988 
	C947.993591,126.855995 947.998108,126.995857 948.135010,126.824936 
	C948.512512,126.387962 948.753113,126.121910 948.993652,125.855850 
	C948.993652,125.855843 948.998047,125.995972 949.134888,125.824875 
	C949.512390,125.387604 949.752991,125.121429 949.993591,124.855255 
	C949.993591,124.855247 949.997498,124.996078 950.134399,124.824768 
	C950.511963,124.387070 950.752686,124.120674 950.993408,123.854286 
	C950.993408,123.854294 950.997192,123.995872 951.133911,123.824524 
	C951.511536,123.386620 951.752441,123.120056 951.993286,122.853485 
	C951.993286,122.853485 951.996948,122.995796 952.133545,122.824547 
	C952.511230,122.386658 952.752197,122.120026 952.993164,121.853378 
	C952.993164,121.853363 952.996948,121.995758 953.133484,121.824615 
	C953.511108,121.387001 953.752197,121.120529 953.993286,120.854065 
	C953.993286,120.854080 953.997131,120.995834 954.133789,120.824829 
	C954.511475,120.387703 954.752502,120.121574 954.993591,119.855453 
	C954.993591,119.855461 954.997253,119.996178 955.134216,119.825188 
	C955.512146,119.388397 955.753113,119.122604 955.994019,118.856796 
	C955.994019,118.856781 955.997681,118.996399 956.134888,118.825386 
	C956.512695,118.388672 956.753357,118.122971 956.993958,117.857269 
	C956.993958,117.857269 956.997803,117.996338 957.135132,117.825256 
	C957.512939,117.388329 957.753418,117.122490 957.993958,116.856651 
	C957.993958,116.856659 957.997742,116.996277 958.134949,116.825043 
	C958.512634,116.387596 958.753174,116.121384 958.993652,115.855179 
	C958.993652,115.855186 958.997375,115.996056 959.134277,115.824707 
	C959.511902,115.386803 959.752563,115.120239 959.993286,114.853683 
	C959.993286,114.853699 959.997131,114.995735 960.133789,114.824516 
	C960.511353,114.386589 960.752319,114.119881 960.993286,113.853157 
	C960.993225,113.853142 960.997131,113.995682 961.133545,113.824516 
	C961.511108,113.386810 961.752197,113.120270 961.993286,112.853729 
	C961.993286,112.853745 961.997192,112.995773 962.133789,112.824814 
	C962.511353,112.387634 962.752380,112.121414 962.993469,111.855209 
	C962.993469,111.855217 962.997375,111.995941 963.134277,111.825104 
	C963.512085,111.388458 963.752930,111.122650 963.993835,110.856842 
	C963.993835,110.856834 963.997620,110.996208 964.134888,110.825394 
	C964.512817,110.389061 964.753418,110.123543 964.994019,109.858017 
	C964.994019,109.858017 964.997742,109.996437 965.135315,109.825607 
	C965.513306,109.389397 965.753723,109.124016 965.994141,108.858635 
	C965.994141,108.858627 965.990356,109.009621 966.077271,108.830795 
	C966.055054,108.115730 965.945984,107.579491 965.836914,107.043221 
z"/>
    <path fill="#1399D5" opacity="1.000000" stroke="none"
          d="
M928.860474,298.079742 
	C926.137573,300.932587 924.054199,300.418152 921.942932,297.512207 
	C914.152771,286.789764 906.218628,276.171906 898.341797,265.512390 
	C887.231628,250.477371 876.243530,235.349655 864.930969,220.468567 
	C862.149231,216.809372 864.511841,213.895905 864.944092,210.250702 
	C876.754944,197.956985 888.549866,186.048401 900.633118,174.396271 
	C899.655090,178.545013 900.388184,181.767410 902.977295,185.178207 
	C910.758118,195.428177 918.138550,205.982040 925.675171,216.417389 
	C921.070496,221.171219 916.341187,225.814651 911.958252,230.764847 
	C910.992920,231.855148 910.592468,234.249954 911.057129,235.677902 
	C915.808655,250.280426 920.891541,264.775208 925.631226,279.381470 
	C926.619202,282.426117 926.578247,285.804657 927.139221,289.648926 
	C927.427551,290.530243 927.618652,290.767456 927.840088,290.980164 
	C928.188965,293.204620 928.537842,295.429108 928.860474,298.079742 
z"/>
    <path fill="#22ADE3" opacity="1.000000" stroke="none"
          d="
M901.037720,442.103210 
	C893.609741,457.311554 886.200134,472.528931 878.740112,487.721527 
	C877.022461,491.219513 875.132263,494.632782 872.761658,498.034607 
	C863.543762,485.934570 854.802490,473.943237 846.292847,461.789734 
	C844.429016,459.127869 842.407837,459.209076 839.887329,459.959412 
	C842.490723,454.547394 845.261169,449.208405 847.666321,443.709686 
	C854.798706,427.403748 861.786987,411.034821 869.315125,394.266510 
	C872.503418,391.888824 874.550354,392.493713 876.482483,395.168945 
	C883.850952,405.371429 891.187744,415.603546 898.847839,425.585510 
	C901.882507,429.540131 902.617004,433.520111 901.484619,438.154205 
	C901.172791,439.430725 901.177979,440.784760 901.037720,442.103210 
z"/>
    <path fill="#0382C5" opacity="1.000000" stroke="none"
          d="
M1027.943604,143.787262 
	C1026.170288,142.862885 1024.014038,142.081619 1022.828491,140.549255 
	C1016.344666,132.168747 1010.044556,123.643745 1003.785583,115.092110 
	C995.673767,104.009048 987.652710,92.859497 979.627380,81.713531 
	C979.264221,81.209137 979.243652,80.458099 979.036987,79.469498 
	C979.010498,79.117027 979.411499,78.985542 979.913940,78.928047 
	C980.940796,78.619614 981.465210,78.368683 981.989624,78.117744 
	C981.989624,78.117744 982.403198,77.987022 982.910828,77.929230 
	C983.941833,77.621208 984.465149,77.370972 984.988525,77.120743 
	C984.988525,77.120735 985.404724,76.989868 985.913086,76.930939 
	C986.943665,76.621613 987.465942,76.371201 987.988159,76.120789 
	C1005.474060,70.071541 1022.963379,64.031982 1040.444092,57.967930 
	C1046.822998,55.755074 1053.181763,53.483994 1060.325317,50.966053 
	C1050.444702,79.235481 1040.813843,106.790405 1030.854492,134.919861 
	C1030.368652,136.047668 1030.211304,136.600952 1030.053955,137.154236 
	C1030.053955,137.154236 1030.004639,137.596893 1029.767090,138.044724 
	C1029.371460,139.047424 1029.213379,139.602310 1029.055176,140.157181 
	C1029.055176,140.157181 1029.007690,140.597382 1028.769775,141.044083 
	C1028.373169,142.046753 1028.214600,142.602722 1028.055908,143.158691 
	C1028.056030,143.158707 1028.008789,143.583664 1027.943604,143.787262 
z"/>
    <path fill="#1FA9E0" opacity="1.000000" stroke="none"
          d="
M819.588684,255.088348 
	C826.906860,264.779907 833.835266,274.670532 840.989197,284.395294 
	C843.186340,287.382019 846.000488,289.914795 848.791626,292.880127 
	C831.254517,311.018250 813.457947,328.931732 795.370483,346.578186 
	C797.111267,341.374634 794.418030,338.171173 791.496948,334.493652 
	C785.353760,326.759766 779.940125,318.449707 773.912964,310.617859 
	C772.581787,308.888092 769.945435,308.162811 767.910034,306.975037 
	C785.035278,289.724548 802.160522,272.474060 819.588684,255.088348 
z"/>
    <path fill="#666666" opacity="1.000000" stroke="none"
          d="
M242.998245,1132.989502 
	C242.992477,1137.153442 243.302353,1140.862549 242.814560,1144.463745 
	C242.637115,1145.773804 240.655319,1147.684204 239.328049,1147.834717 
	C235.379257,1148.283203 231.343933,1147.901489 227.347839,1148.022461 
	C224.305008,1148.114502 223.221619,1146.450195 223.029785,1143.790283 
	C222.957977,1142.794922 222.993896,1141.791260 222.993866,1140.791382 
	C222.992508,1103.959595 223.090073,1067.127197 222.881241,1030.296631 
	C222.851974,1025.136963 224.451782,1023.474792 229.446609,1023.922485 
	C233.710388,1024.304688 238.035583,1024.001465 242.883972,1024.001465 
	C242.883972,1028.030273 242.883972,1031.593750 242.883972,1036.439087 
	C253.926071,1027.580566 264.309540,1019.775391 278.709534,1021.208435 
	C278.709534,1027.827759 278.709534,1034.078247 278.709534,1040.294800 
	C257.212494,1044.948120 243.014175,1062.783691 243.000549,1084.993896 
	C242.990829,1100.826538 242.998383,1116.659302 242.998245,1132.989502 
z"/>
    <path fill="#666666" opacity="1.000000" stroke="none"
          d="
M1122.222900,1058.253662 
	C1115.900024,1066.970703 1113.640015,1076.328491 1113.878052,1086.758301 
	C1114.299805,1105.247070 1113.869629,1123.753906 1114.086548,1142.249756 
	C1114.139160,1146.736084 1112.386475,1147.988525 1108.270020,1148.055786 
	C1093.998535,1148.288452 1094.000000,1148.375122 1094.000000,1134.009644 
	C1094.000000,1099.512695 1094.000000,1065.015625 1094.000000,1030.518677 
	C1094.000000,1028.561768 1094.000000,1026.604980 1094.000000,1024.028320 
	C1099.973022,1024.028320 1105.428955,1023.832275 1110.848389,1024.190063 
	C1111.963257,1024.263550 1113.565796,1026.275635 1113.845581,1027.622314 
	C1114.337769,1029.991455 1113.983154,1032.536621 1113.983154,1034.630981 
	C1121.219482,1030.664429 1128.323486,1026.739014 1135.465576,1022.884338 
	C1136.752930,1022.189514 1138.158081,1021.630554 1139.575439,1021.272217 
	C1147.834229,1019.184448 1150.020996,1020.868774 1149.977295,1029.282715 
	C1149.959229,1032.768311 1150.919678,1036.964355 1149.323730,1039.517578 
	C1147.998047,1041.638306 1143.607178,1041.917480 1140.525391,1042.851440 
	C1132.338379,1045.332520 1127.100098,1051.284302 1122.222900,1058.253662 
z"/>
    <path fill="#2DB9EB" opacity="1.000000" stroke="none"
          d="
M705.942505,435.537415 
	C698.482544,421.074615 691.244812,406.368622 683.989380,391.280457 
	C698.091614,376.679840 712.211609,362.461395 727.018555,348.125610 
	C729.224609,348.812927 731.224365,349.246429 732.181091,350.485382 
	C736.713806,356.354980 740.872620,362.511688 745.337646,368.435669 
	C749.397949,373.822632 753.680908,379.041809 757.865723,384.334961 
	C741.462585,400.818787 725.065308,417.308472 708.635254,433.765503 
	C707.969421,434.432465 706.995239,434.791595 705.942505,435.537415 
z"/>
    <path fill="#1CA5DD" opacity="1.000000" stroke="none"
          d="
M901.362366,441.929260 
	C901.177979,440.784760 901.172791,439.430725 901.484619,438.154205 
	C902.617004,433.520111 901.882507,429.540131 898.847839,425.585510 
	C891.187744,415.603546 883.850952,405.371429 876.482483,395.168945 
	C874.550354,392.493713 872.503418,391.888824 869.482910,393.924744 
	C871.776062,385.388153 874.605469,376.828735 876.947144,368.137939 
	C881.553528,351.041809 882.579224,333.553528 882.098267,315.468689 
	C884.374512,318.578674 886.411621,322.272736 888.821167,325.705353 
	C898.055359,338.860352 907.279907,352.026978 916.838806,364.944550 
	C918.532043,367.232666 921.803772,368.352692 924.731812,370.026367 
	C922.721497,379.766571 920.967712,389.708832 917.780579,399.168060 
	C912.938232,413.539764 907.101440,427.576385 901.362366,441.929260 
z"/>
    <path fill="#0E92D0" opacity="1.000000" stroke="none"
          d="
M925.694336,216.309235 
	C918.138550,205.982040 910.758118,195.428177 902.977295,185.178207 
	C900.388184,181.767410 899.655090,178.545013 900.938110,174.248428 
	C916.071289,158.615417 931.187866,143.386703 946.607544,128.013611 
	C945.959717,135.205307 951.186951,139.785004 954.740723,145.030853 
	C958.936462,151.224442 963.376038,157.262878 967.941528,163.190155 
	C969.393982,165.075836 971.586792,166.391235 973.801636,168.008926 
	C958.689148,183.622238 943.215759,199.194229 927.179321,215.089264 
	C926.252014,215.638519 925.887817,215.864761 925.523560,216.091003 
	C925.523560,216.091003 925.713562,216.201126 925.694336,216.309235 
z"/>
    <path fill="#15B0E7" opacity="1.000000" stroke="none"
          d="
M559.419067,147.057892 
	C551.828430,133.552231 544.614197,119.994041 537.150391,106.195007 
	C554.509766,95.901520 573.716553,90.136688 593.575134,85.328262 
	C597.058411,90.674706 599.898987,95.839027 603.232178,100.662971 
	C609.332764,109.491905 615.724426,118.119705 621.994751,126.831390 
	C608.746887,130.531815 595.406311,133.936035 582.286560,138.045517 
	C574.607483,140.450821 567.280762,143.981140 559.419067,147.057892 
z"/>
    <path fill="#29B5E8" opacity="1.000000" stroke="none"
          d="
M839.656372,460.031189 
	C842.407837,459.209076 844.429016,459.127869 846.292847,461.789734 
	C854.802490,473.943237 863.543762,485.934570 872.500244,498.249451 
	C872.544739,498.827637 872.290710,499.140564 871.765564,499.893982 
	C871.296204,500.560791 871.141418,500.813629 871.030029,501.093048 
	C870.706421,501.867493 870.382874,502.641937 869.767700,503.870056 
	C869.280273,504.544952 869.129333,504.793365 869.023193,505.069031 
	C860.800537,518.766479 852.571655,532.460205 844.365723,546.167664 
	C843.628113,547.399902 843.038818,548.720886 842.107971,550.181702 
	C839.319763,547.109680 836.734436,543.907776 834.302490,540.593323 
	C828.142700,532.198608 822.145569,523.682068 815.849426,515.392029 
	C814.676025,513.846924 812.412659,513.129639 810.282227,512.000244 
	C815.571594,502.192505 821.283997,492.444916 826.872314,482.626648 
	C830.635681,476.014587 834.223755,469.302704 838.207520,462.153076 
	C838.720215,461.447998 838.870544,461.198181 838.975891,460.921265 
	C838.977478,460.567047 839.127319,460.294281 839.656372,460.031189 
z"/>
    <path fill="#EF7827" opacity="1.000000" stroke="none"
          d="
M640.999939,866.162781 
	C674.747864,866.162781 708.495850,866.162781 742.996521,866.162781 
	C727.419556,888.303772 710.665100,908.098083 683.294922,915.572937 
	C682.507690,914.613953 682.283386,913.950623 681.853394,913.472046 
	C672.437622,902.991028 662.896118,892.620789 653.609497,882.027039 
	C649.161804,876.953247 645.188232,871.463928 640.999939,866.162781 
z"/>
    <path fill="#0CA8E1" opacity="1.000000" stroke="none"
          d="
M622.416565,126.905579 
	C615.724426,118.119705 609.332764,109.491905 603.232178,100.662971 
	C599.898987,95.839027 597.058411,90.674706 593.984436,85.276718 
	C603.215149,82.931648 612.380859,80.386581 621.719482,79.172798 
	C632.087036,77.825287 642.612488,77.692513 653.531738,77.098541 
	C654.347595,79.472527 653.979980,82.277985 655.173950,84.002159 
	C661.768799,93.525909 668.790222,102.752914 675.569458,112.150917 
	C678.809509,116.642517 681.425537,121.667526 686.868774,124.525406 
	C678.629333,124.555046 670.243286,123.764664 661.905212,124.115631 
	C648.865845,124.664490 635.859009,125.985725 622.416565,126.905579 
z"/>
    <path fill="#25B1E6" opacity="1.000000" stroke="none"
          d="
M758.131592,384.178833 
	C753.680908,379.041809 749.397949,373.822632 745.337646,368.435669 
	C740.872620,362.511688 736.713806,356.354980 732.181091,350.485382 
	C731.224365,349.246429 729.224609,348.812927 727.324951,347.995209 
	C740.396973,334.400970 753.849487,320.819885 767.605957,307.106873 
	C769.945435,308.162811 772.581787,308.888092 773.912964,310.617859 
	C779.940125,318.449707 785.353760,326.759766 791.496948,334.493652 
	C794.418030,338.171173 797.111267,341.374634 795.060364,346.712219 
	C782.826538,359.416412 770.611938,371.719574 758.131592,384.178833 
z"/>
    <path fill="#22ADE3" opacity="1.000000" stroke="none"
          d="
M684.437622,248.855789 
	C682.718140,232.975815 669.499451,223.875900 661.862915,211.501190 
	C657.285461,204.083572 652.046021,197.038422 646.643616,190.189026 
	C645.119019,188.256012 641.969666,187.604385 639.267395,186.149429 
	C652.087952,181.387848 665.201294,176.826462 678.326843,172.300522 
	C690.250427,168.189026 702.187378,164.116058 715.006226,159.721741 
	C711.401733,170.165161 707.973694,179.955612 704.642578,189.778915 
	C697.988892,209.400085 691.388367,229.039291 684.437622,248.855789 
z"/>
    <path fill="#EE6E27" opacity="1.000000" stroke="none"
          d="
M640.536255,866.091187 
	C645.188232,871.463928 649.161804,876.953247 653.609497,882.027039 
	C662.896118,892.620789 672.437622,902.991028 681.853394,913.472046 
	C682.283386,913.950623 682.507690,914.613953 682.912842,915.514221 
	C680.364380,916.556641 677.766479,917.704224 675.091431,917.927551 
	C654.471924,919.649292 635.446655,915.174194 619.834717,901.122620 
	C607.992981,890.464539 597.098267,878.754272 585.782166,867.512146 
	C586.045654,867.014648 586.309204,866.517090 586.572754,866.019592 
	C604.406067,866.019592 622.239319,866.019592 640.536255,866.091187 
z"/>
    <path fill="#F18525" opacity="1.000000" stroke="none"
          d="
M856.005127,183.661560 
	C851.406372,187.786453 849.269470,185.428726 846.440613,181.434082 
	C836.777039,167.788010 826.498413,154.577866 816.793579,140.959778 
	C815.904175,139.711716 817.434204,136.739456 817.906677,134.229202 
	C830.319275,129.609421 842.664062,125.322845 855.013245,121.049019 
	C863.086121,118.255150 871.165344,115.479805 880.876221,112.132812 
	C872.316772,136.802368 864.246765,160.061356 856.005127,183.661560 
z"/>
    <path fill="#666666" opacity="1.000000" stroke="none"
          d="
M156.903046,975.999207 
	C160.131134,975.999268 162.874878,975.999268 165.618637,975.999268 
	C165.740494,976.395081 165.862366,976.790894 165.984222,977.186646 
	C163.676041,979.115051 161.427216,981.120239 159.049240,982.958252 
	C149.690536,990.192078 140.347488,997.448914 130.855850,1004.505188 
	C129.120239,1005.795471 126.753174,1006.752930 124.616699,1006.885864 
	C119.238388,1007.220581 113.825317,1006.996643 108.426178,1006.996643 
	C108.304428,1006.505981 108.182671,1006.015320 108.060913,1005.524658 
	C112.057091,1000.833252 115.996117,996.091614 120.066292,991.465393 
	C123.773361,987.251953 127.994064,983.432190 131.262100,978.913696 
	C133.053680,976.436523 134.815826,975.940369 137.424347,975.973450 
	C143.754883,976.053772 150.087143,975.999329 156.903046,975.999207 
z"/>
    <path fill="#0CA8E1" opacity="1.000000" stroke="none"
          d="
M688.090454,125.371635 
	C689.364746,125.182953 690.843811,125.329208 692.645325,125.655350 
	C691.410217,125.792351 689.852722,125.749466 688.090454,125.371635 
z"/>
    <path fill="#0788CA" opacity="1.000000" stroke="none"
          d="
M1029.343262,140.009842 
	C1029.213379,139.602310 1029.371460,139.047424 1029.701904,138.257629 
	C1029.793091,138.635971 1029.712158,139.249237 1029.343262,140.009842 
z"/>
    <path fill="#0788CA" opacity="1.000000" stroke="none"
          d="
M1028.343994,143.010696 
	C1028.214600,142.602722 1028.373169,142.046753 1028.705078,141.255783 
	C1028.796265,141.634750 1028.714233,142.248718 1028.343994,143.010696 
z"/>
    <path fill="#0E92D0" opacity="1.000000" stroke="none"
          d="
M965.894165,107.367744 
	C965.945984,107.579491 966.055054,108.115730 966.001831,108.829056 
	C965.876709,108.568169 965.914062,108.130203 965.894165,107.367744 
z"/>
    <path fill="#0788CA" opacity="1.000000" stroke="none"
          d="
M987.668335,76.060448 
	C987.465942,76.371201 986.943665,76.621613 986.130005,76.908096 
	C986.341919,76.629486 986.845154,76.314796 987.668335,76.060448 
z"/>
    <path fill="#0788CA" opacity="1.000000" stroke="none"
          d="
M1030.342163,137.008057 
	C1030.211304,136.600952 1030.368652,136.047668 1030.696777,135.259552 
	C1030.788574,135.637115 1030.709473,136.249496 1030.342163,137.008057 
z"/>
    <path fill="#0788CA" opacity="1.000000" stroke="none"
          d="
M981.668457,78.058167 
	C981.465210,78.368683 980.940796,78.619614 980.123779,78.905457 
	C980.336548,78.626450 980.841980,78.312523 981.668457,78.058167 
z"/>
    <path fill="#0788CA" opacity="1.000000" stroke="none"
          d="
M984.668091,77.060898 
	C984.465149,77.370972 983.941833,77.621208 983.126526,77.906586 
	C983.338989,77.628174 983.843384,77.314613 984.668091,77.060898 
z"/>
    <path fill="#0E92D0" opacity="1.000000" stroke="none"
          d="
M959.723999,114.952827 
	C959.752563,115.120239 959.511902,115.386803 959.063843,115.826416 
	C959.055908,115.683640 959.255371,115.367813 959.723999,114.952827 
z"/>
    <path fill="#0E92D0" opacity="1.000000" stroke="none"
          d="
M962.723877,111.953583 
	C962.752380,112.121414 962.511353,112.387634 962.062744,112.826614 
	C962.054871,112.683586 962.254578,112.367775 962.723877,111.953583 
z"/>
    <path fill="#0E92D0" opacity="1.000000" stroke="none"
          d="
M961.723694,112.952522 
	C961.752197,113.120270 961.511108,113.386810 961.062317,113.826309 
	C961.054443,113.683289 961.254272,113.367302 961.723694,112.952522 
z"/>
    <path fill="#0E92D0" opacity="1.000000" stroke="none"
          d="
M963.724365,110.954895 
	C963.752930,111.122650 963.512085,111.388458 963.063904,111.826927 
	C963.056091,111.684036 963.255554,111.368492 963.724365,110.954895 
z"/>
    <path fill="#0E92D0" opacity="1.000000" stroke="none"
          d="
M964.724792,109.955910 
	C964.753418,110.123543 964.512817,110.389061 964.065186,110.827148 
	C964.057312,110.684410 964.256470,110.369102 964.724792,109.955910 
z"/>
    <path fill="#0E92D0" opacity="1.000000" stroke="none"
          d="
M965.725098,108.956581 
	C965.753723,109.124016 965.513306,109.389397 965.066101,109.827332 
	C965.058289,109.684761 965.257202,109.369637 965.725098,108.956581 
z"/>
    <path fill="#0E92D0" opacity="1.000000" stroke="none"
          d="
M947.724243,126.954361 
	C947.752930,127.121986 947.512268,127.387985 947.064697,127.826965 
	C947.056824,127.684204 947.255859,127.368469 947.724243,126.954361 
z"/>
    <path fill="#22ADE3" opacity="1.000000" stroke="none"
          d="
M838.740723,461.014496 
	C838.870544,461.198181 838.720215,461.447998 838.371155,461.827759 
	C838.313538,461.692444 838.409546,461.400085 838.740723,461.014496 
z"/>
    <path fill="#22ADE3" opacity="1.000000" stroke="none"
          d="
M683.279907,252.009979 
	C683.148254,251.821030 683.303955,251.567490 683.658447,251.179031 
	C683.716553,251.317520 683.619812,251.617950 683.279907,252.009979 
z"/>
    <path fill="#189FDA" opacity="1.000000" stroke="none"
          d="
M927.859375,290.717957 
	C927.618652,290.767456 927.427551,290.530243 927.151123,290.071045 
	C927.316467,290.067596 927.597534,290.261658 927.859375,290.717957 
z"/>
    <path fill="#0E92D0" opacity="1.000000" stroke="none"
          d="
M951.724365,122.953278 
	C951.752441,123.120056 951.511536,123.386620 951.063110,123.826302 
	C951.055603,123.683968 951.255554,123.368515 951.724365,122.953278 
z"/>
    <path fill="#1399D5" opacity="1.000000" stroke="none"
          d="
M925.878723,216.081451 
	C925.887817,215.864761 926.252014,215.638519 926.878418,215.224274 
	C926.838318,215.381454 926.536072,215.726669 925.878723,216.081451 
z"/>
    <path fill="#0E92D0" opacity="1.000000" stroke="none"
          d="
M952.724121,121.952980 
	C952.752197,122.120026 952.511230,122.386658 952.062378,122.826256 
	C952.054749,122.683662 952.254883,122.368118 952.724121,121.952980 
z"/>
    <path fill="#0E92D0" opacity="1.000000" stroke="none"
          d="
M949.724854,124.954636 
	C949.752991,125.121429 949.512390,125.387604 949.064819,125.826889 
	C949.057251,125.684662 949.256653,125.369339 949.724854,124.954636 
z"/>
    <path fill="#0E92D0" opacity="1.000000" stroke="none"
          d="
M953.724121,120.953308 
	C953.752197,121.120529 953.511108,121.387001 953.062256,121.826355 
	C953.054626,121.683678 953.254761,121.368126 953.724121,120.953308 
z"/>
    <path fill="#0E92D0" opacity="1.000000" stroke="none"
          d="
M954.724426,119.954269 
	C954.752502,120.121574 954.511475,120.387703 954.062927,120.826637 
	C954.055359,120.683990 954.255310,120.368538 954.724426,119.954269 
z"/>
    <path fill="#0E92D0" opacity="1.000000" stroke="none"
          d="
M948.724609,125.954735 
	C948.753113,126.121910 948.512512,126.387962 948.065063,126.827026 
	C948.057312,126.684555 948.256470,126.369080 948.724609,125.954735 
z"/>
    <path fill="#0E92D0" opacity="1.000000" stroke="none"
          d="
M955.724854,118.955261 
	C955.753113,119.122604 955.512146,119.388397 955.063843,119.826843 
	C955.056213,119.684235 955.255920,119.368980 955.724854,118.955261 
z"/>
    <path fill="#0E92D0" opacity="1.000000" stroke="none"
          d="
M960.723755,113.952225 
	C960.752319,114.119881 960.511353,114.386589 960.062744,114.826294 
	C960.054749,114.683289 960.254456,114.367279 960.723755,113.952225 
z"/>
    <path fill="#0E92D0" opacity="1.000000" stroke="none"
          d="
M956.724976,117.955704 
	C956.753357,118.122971 956.512695,118.388672 956.065063,118.827057 
	C956.057373,118.684540 956.256653,118.369339 956.724976,117.955704 
z"/>
    <path fill="#22ADE3" opacity="1.000000" stroke="none"
          d="
M871.275940,501.004883 
	C871.141418,500.813629 871.296204,500.560791 871.648682,500.173035 
	C871.709229,500.313293 871.615540,500.614990 871.275940,501.004883 
z"/>
    <path fill="#22ADE3" opacity="1.000000" stroke="none"
          d="
M869.262878,504.982178 
	C869.129333,504.793365 869.280273,504.544952 869.629883,504.167786 
	C869.690063,504.306335 869.596313,504.600830 869.262878,504.982178 
z"/>
    <path fill="#0E92D0" opacity="1.000000" stroke="none"
          d="
M957.724976,116.955269 
	C957.753418,117.122490 957.512939,117.388329 957.065552,117.827019 
	C957.057800,117.684547 957.256958,117.369225 957.724976,116.955269 
z"/>
    <path fill="#29B5E8" opacity="1.000000" stroke="none"
          d="
M805.735718,518.017822 
	C805.871399,518.208679 805.720642,518.455688 805.373169,518.831543 
	C805.311340,518.691711 805.402222,518.396240 805.735718,518.017822 
z"/>
    <path fill="#29B5E8" opacity="1.000000" stroke="none"
          d="
M840.273132,552.993652 
	C840.137390,552.799377 840.292236,552.549805 840.644531,552.168335 
	C840.706116,552.310425 840.613403,552.611084 840.273132,552.993652 
z"/>
    <path fill="#29B5E8" opacity="1.000000" stroke="none"
          d="
M839.255310,554.952271 
	C839.116882,554.762512 839.260742,554.522156 839.602051,554.161743 
	C839.939148,554.383972 839.851868,554.670593 839.255310,554.952271 
z"/>
    <path fill="#0E92D0" opacity="1.000000" stroke="none"
          d="
M958.724609,115.954140 
	C958.753174,116.121384 958.512634,116.387596 958.065125,116.826752 
	C958.057251,116.684166 958.256409,116.368629 958.724609,115.954140 
z"/>
    <path fill="#0E92D0" opacity="1.000000" stroke="none"
          d="
M950.724731,123.953995 
	C950.752686,124.120674 950.511963,124.387070 950.063965,124.826553 
	C950.056396,124.684334 950.256226,124.369019 950.724731,123.953995 
z"/>
    <path fill="#000000" opacity="0.000000" stroke="none"
          d="
M407.009949,1075.203125 
	C406.688782,1082.280884 406.962524,1088.979614 405.907196,1095.461914 
	C404.368073,1104.916138 398.829315,1112.343018 391.754700,1118.617554 
	C383.024353,1126.360718 372.386047,1130.262695 361.139404,1130.698730 
	C350.423279,1131.114136 339.890503,1128.323364 331.058929,1121.475830 
	C317.736206,1111.145996 310.546600,1097.775635 310.982971,1080.610962 
	C311.614838,1055.755493 332.159607,1033.555176 357.929840,1033.813477 
	C367.705627,1033.911377 376.877289,1035.166626 384.853119,1040.556274 
	C396.924744,1048.713867 406.159454,1059.106689 407.009949,1075.203125 
z"/>
    <path fill="#000000" opacity="0.000000" stroke="none"
          d="
M177.999542,1088.717773 
	C176.651337,1101.894897 169.924393,1111.476562 160.627335,1119.733032 
	C152.520905,1126.932129 142.513351,1130.063965 132.390091,1130.619385 
	C120.669342,1131.262573 109.315117,1127.999023 99.734207,1120.275879 
	C88.110931,1110.906616 81.924538,1098.487793 81.262878,1083.978760 
	C80.724220,1072.166870 83.967308,1060.817505 92.037842,1051.513306 
	C99.348343,1043.085449 108.240028,1037.072021 119.193596,1034.377563 
	C137.421967,1029.893555 158.830902,1038.815308 169.838669,1054.032227 
	C177.494492,1064.615601 178.501663,1076.085083 177.999542,1088.717773 
z"/>
    <path fill="#000000" opacity="0.000000" stroke="none"
          d="
M820.748779,1057.749268 
	C804.620911,1073.892456 788.743469,1089.785889 772.864746,1105.680664 
	C762.804810,1095.424316 761.495239,1066.625244 778.944031,1048.077637 
	C795.140442,1030.861328 825.626099,1030.038452 838.206970,1040.896118 
	C832.443176,1046.457397 826.721130,1051.978516 820.748779,1057.749268 
z"/>
</svg>