<?xml version="1.0" encoding="UTF-8"?>
<!-- Generator: Adobe Illustrator 24.2.3, SVG Export Plug-In . SVG Version: 6.00 Build 0)  -->
<svg xmlns="http://www.w3.org/2000/svg" xmlns:xlink="http://www.w3.org/1999/xlink" version="1.1" id="Réteg_1" x="0px"
     y="0px" viewBox="0 0 482.4 311.8" style="enable-background:new 0 0 482.4 311.8;" xml:space="preserve">
<style type="text/css">
	.st0{fill-rule:evenodd;clip-rule:evenodd;fill:url(#SVGID_1_);}
	.st1{fill-rule:evenodd;clip-rule:evenodd;fill:url(#SVGID_2_);}
	.st2{fill:#EEAF30;}
	.st3{fill:#6D6E71;}
</style>
    <g id="Fondo">
</g>
    <g id="Guías">
</g>
    <g id="Primer_plano">
	<g>
		<g>
			
				<linearGradient id="SVGID_1_" gradientUnits="userSpaceOnUse" x1="1790.1907" y1="1846.3365"
                                x2="2057.4707" y2="1846.3365" gradientTransform="matrix(1 0 0 -1 -1692 1934)">
				<stop offset="0" style="stop-color:#6D6E71"></stop>
                    <stop offset="1" style="stop-color:#F3F7ED"></stop>
			</linearGradient>
            <path class="st0"
                  d="M365.5,32.5c0,0-92.1-19.2-166.8,40.7S98.2,142.9,98.2,142.9s61.8,7.2,102.6-1.4     c40.8-8.6,83.4-49.8,101-67.5C339.3,36.2,365.5,32.5,365.5,32.5z"></path>

            <linearGradient id="SVGID_2_" gradientUnits="userSpaceOnUse" x1="2008.8297" y1="1844.858" x2="2176.0027"
                            y2="1926.3938" gradientTransform="matrix(1 0 0 -1 -1692 1934)">
				<stop offset="0" style="stop-color:#E5EEF1"></stop>
                <stop offset="1" style="stop-color:#EEAF30"></stop>
			</linearGradient>
            <path class="st1"
                  d="M482.4,4.3c0,0-41.5,69.1-98.5,68.1c-36.2-0.7-55.1,3.9-70.3,10.1c0,0,24.6-28,46.6-39.4     c18.7-9.7,41.1-11.4,55.9-12.4C451,28.2,482.4,4.3,482.4,4.3z"></path>
		</g>
        <g>
			<path class="st2"
                  d="M73.9,192c0-6.7-3.4-25.3-32-24.7c-20.7,0.4-32,5.3-31.5,6.6c0.3,1.1,1.2,4.6,1.7,4.9     c0.5,0.3,1.4,0.2,3.1-0.3c1.7-0.5,15-3.6,21.8-3.8c6-0.2,13.5-0.6,19.1,2.8c5.7,3.4,9.4,7.1,9.7,14c0.3,6.7,0.3,7.9,0.3,15.1     c0,0-33.1-1.4-44.1,1.8c-6.6,1.9-22,8.2-22.1,29.4c-0.1,11.5,5.2,20.5,16,25.6c9.1,3.6,16.8,5,35.9,2.7c11-1.7,18.6-4.9,19.8-5.3     c0.3-0.1,2.1-1,2.2-3.9C74,254.3,73.9,194.8,73.9,192z M66.1,254.9c0,0-21.7,6.5-34.6,5.2c-11.3-1.1-18.3-4.6-21.9-13.6     c-2.6-6.7-2.9-19.4,4.6-25.7c6.8-5.7,15.5-7.5,28-7.5c12.4,0,23.9,0.3,23.9,0.3L66.1,254.9L66.1,254.9z"></path>
            <path class="st2"
                  d="M110.6,183.6v-11.9c0,0-0.2-2.2-3.2-2.2s-7.4,0-7.4,0s-2,0.3-1.9,3.4s0,11.7,0,11.7s0,28.7,0,40.4     c0,17.1,3.4,24.3,5.8,27.6c5.4,7.6,11.6,12.4,23.4,14c11.9,1.6,33.2,0.8,41.4-4.6c4.8-3.2,4.5-4.2,4.5-6.9s0-80.6,0-80.6     s0.3-4.8-2.6-4.8c-3.3,0-7.8,0-7.8,0s-2.2,0-2.2,4.1s0,80.3,0,80.3s-9.3,1.5-23.6,1.5c-13.4-0.5-21.6-3.3-24.7-16     c-1.7-7-1.7-14.5-1.8-15.1C110.5,223.8,110.6,183.6,110.6,183.6z"></path>
            <path class="st2"
                  d="M273.7,253.3V137.4c0-4.7-1.7-4.7-1.7-4.7s-7.7,0-10.1,0c-2.4,0-2.1,5.2-2.1,5.2v32.5c0,0-4.2-1.8-16.5-2.7     c-12.4-0.9-21,1.4-29,5.3c-5.9,2.9-19.7,12.6-21.3,35.4s2.5,41.9,14.9,50.8c22.9,16.5,57,3.4,62,0.9     C274,257.9,273.7,253.3,273.7,253.3z M259.5,198.2v51.6c0,0-15.4,6-28.3,3.8s-18.7-12.2-20.8-20.1c-2.1-7.9-3.5-27.3,2.7-39.1     c5.7-10.7,12.5-12.9,17.3-13.6c9.6-1.5,29.5,1.3,39.5,6.6C258.2,188.1,259.5,198.2,259.5,198.2z"></path>
            <path class="st2"
                  d="M406.9,169.5h-24c0,0-2.5,0-1.9,1.8s13.6,24.8,35.8,50.8c-7.4,7.3-23.8,25.1-30.6,37.5c-2.2,3.4-2.6,5,1.7,5     c4.3,0,18.2,0,18.2,0s1.6-0.3,3.4-2.3c5.7-6.1,18.6-20,21.1-22.8c0,0,0.5,0.5,2.4,3.4c1.9,2.9,12.7,19.9,13.6,20.6     c0.9,0.7,1.1,0.8,7.8,0.8c6.6,0,18.9,0,18.9,0s1.9,0.1-1-4c-3-4.1-18.1-28.6-18.1-28.6s-1.6-3-4.5-1.8s-16.8,7.4-16.8,7.4     s43.9-49.6,47.3-65.7c0.4-2-3.2-1.9-3.2-1.9h-21.1c0,0-2.9-0.6-4.5,2.2s-11.4,24.4-17.5,31.7c-4.3-6.4-19.9-30.9-20.4-31.4     C413.1,171.6,412.3,169.5,406.9,169.5z"></path>
            <path class="st2"
                  d="M369.7,250.4v-54.7c0,0,1.2-20.8-23.5-27.4c-10.6-2.9-24.8-1.4-44.4,3.4c0,0-3.7,0.5-3.7,3.2     c0,2.8,2.6,11.3,2.6,11.3s0.5,3,5,1.2c4.3-1.7,11.5-2.9,15.9-3.1s9.5-0.2,14.2,0.6c4.3,0.8,10.9,2.6,12.9,9.3     c1.1,3.7,0.8,9.8,0.8,9.8s-28.9-0.3-37.5,2c-7.5,1.9-20.7,6.4-23.1,24.8c-2.1,16.1,5.3,26.3,15.3,31.2c8.7,4.3,21,6.4,38.8,4.2     c15.7-1.9,22-5.3,22-5.3S370.1,259.3,369.7,250.4z M349.3,244.8c0,0-0.2,4.4-7.8,5.3c-6.4,0.8-15.2,1.8-24.8-1.9     c-5-1.9-9-7.7-6.8-16.6c2.3-9.7,10.7-10.7,12.5-11.1c3.4-0.7,26.9-0.5,26.9-0.5L349.3,244.8z"></path>
		</g>
        <g>
			<path class="st3"
                  d="M169,295.7c-0.1,0.2-0.2,0.3-0.3,0.2s-0.2-0.1-0.3-0.2c-0.8-0.7-1.6-1.3-2.6-1.7s-2-0.6-3.1-0.6     c-0.8,0-1.6,0.1-2.4,0.2v17.6c0,0.3-0.1,0.4-0.2,0.5s-0.3,0.1-0.5,0.1h-2.2c-0.2,0-0.4,0-0.5-0.1s-0.1-0.2-0.1-0.5v-17.8     c0-1,0.2-1.7,0.5-2.1c0.3-0.5,1-0.8,2-0.9c0.5,0,1.1-0.1,1.6-0.1s1-0.1,1.5-0.1c1.6,0,3.1,0.2,4.4,0.6c1.4,0.4,2.6,1.1,3.7,2.1     c0.2,0.2,0.2,0.4,0,0.6L169,295.7z"></path>
            <path class="st3"
                  d="M194.3,290.3c1.5,0,2.9,0.2,4,0.6s2,1,2.8,1.8c0.7,0.8,1.2,1.7,1.6,2.8c0.3,1.1,0.5,2.3,0.5,3.6     c0,0.6-0.1,1.2-0.2,1.6c-0.2,0.4-0.4,0.7-0.7,1c-0.3,0.2-0.6,0.4-1,0.5c-0.4,0.1-0.8,0.1-1.1,0.1h-11.6c0,1.3,0.2,2.3,0.5,3.2     s0.8,1.6,1.4,2.2c0.6,0.5,1.3,1,2,1.2s1.6,0.4,2.5,0.4s1.8-0.1,2.6-0.3s1.6-0.5,2.1-0.8c0.3-0.2,0.6-0.1,0.8,0.2l0.9,1.7     c0.2,0.4,0.1,0.6-0.2,0.8c-1,0.6-2,1-3.1,1.2c-1.1,0.2-2.2,0.3-3.3,0.3c-1.5,0-2.9-0.2-4.1-0.6s-2.2-1.1-3.1-2     c-0.8-0.9-1.5-2-1.9-3.4s-0.7-3-0.7-4.9c0-1.8,0.2-3.4,0.7-4.7c0.5-1.4,1.1-2.5,2-3.5c0.8-0.9,1.8-1.7,2.9-2.2     C191.8,290.6,193,290.3,194.3,290.3z M199.9,299.6c0-0.8-0.1-1.6-0.2-2.4c-0.2-0.8-0.4-1.4-0.9-2s-1-1-1.7-1.4     c-0.7-0.3-1.6-0.5-2.7-0.5c-0.9,0-1.7,0.2-2.4,0.5s-1.3,0.8-1.7,1.4c-0.5,0.6-0.9,1.2-1.1,2c-0.3,0.8-0.4,1.5-0.5,2.4     L199.9,299.6L199.9,299.6z"></path>
            <path class="st3"
                  d="M237.3,311.9c-0.1,0.1-0.3,0.1-0.5,0.1h-2.2c-0.2,0-0.4,0-0.5-0.1c-0.1-0.1-0.2-0.2-0.2-0.5v-10.7     c0-1.2-0.1-2.3-0.3-3.2c-0.2-0.9-0.5-1.7-1-2.3s-1.2-1.1-2-1.4c-0.9-0.3-1.9-0.5-3.2-0.5c-0.3,0-0.8,0-1.5,0.1     c-0.7,0-1.5,0.1-2.3,0.3v17.6c0,0.3,0,0.4-0.2,0.5c-0.1,0.1-0.3,0.1-0.5,0.1h-2.2c-0.2,0-0.4,0-0.5-0.1c-0.1-0.1-0.2-0.2-0.2-0.5     v-17.6c0-0.9,0.2-1.6,0.5-2.1s1-0.8,2-1c0.3,0,0.7-0.1,1.1-0.1c0.4,0,0.9-0.1,1.4-0.1s1-0.1,1.4-0.1c0.5,0,0.9,0,1.2,0     c1.7,0,3.2,0.2,4.4,0.6s2.2,1,3,1.8c0.8,0.8,1.4,1.9,1.8,3.2s0.6,2.9,0.6,4.7v10.8C237.5,311.6,237.4,311.8,237.3,311.9z"></path>
            <path class="st3"
                  d="M263.9,290.3c1.5,0,2.9,0.2,4,0.6c1.1,0.4,2,1,2.8,1.8s1.2,1.7,1.6,2.8s0.5,2.3,0.5,3.6     c0,0.6-0.1,1.2-0.2,1.6c-0.2,0.4-0.4,0.7-0.7,1c-0.3,0.2-0.6,0.4-1,0.5c-0.4,0.1-0.8,0.1-1.1,0.1h-11.6c0,1.3,0.2,2.3,0.5,3.2     s0.8,1.6,1.4,2.2c0.6,0.5,1.3,1,2,1.2s1.6,0.4,2.5,0.4c0.9,0,1.8-0.1,2.6-0.3c0.9-0.2,1.6-0.5,2.1-0.8c0.3-0.2,0.6-0.1,0.8,0.2     l0.9,1.7c0.2,0.4,0.1,0.6-0.2,0.8c-1,0.6-2,1-3.1,1.2s-2.2,0.3-3.3,0.3c-1.5,0-2.9-0.2-4.1-0.6s-2.2-1.1-3-2     c-0.8-0.9-1.5-2-1.9-3.4s-0.7-3-0.7-4.9c0-1.8,0.2-3.4,0.7-4.7c0.5-1.4,1.1-2.5,2-3.5c0.8-0.9,1.8-1.7,3-2.2     S262.5,290.3,263.9,290.3z M269.4,299.6c0-0.8-0.1-1.6-0.2-2.4c-0.2-0.8-0.5-1.4-0.9-2c-0.4-0.6-1-1-1.7-1.4     c-0.7-0.3-1.6-0.5-2.7-0.5c-0.9,0-1.7,0.2-2.4,0.5s-1.3,0.8-1.7,1.4c-0.5,0.6-0.8,1.2-1.1,2c-0.3,0.8-0.4,1.5-0.5,2.4     L269.4,299.6L269.4,299.6z"></path>
            <path class="st3"
                  d="M301.8,295.7l-1.8,6.7l-2.5,8.2c-0.2,0.5-0.4,0.9-0.6,1.2c-0.3,0.3-0.7,0.4-1.3,0.4h-1.5     c-0.5,0-0.9-0.1-1.2-0.3s-0.6-0.7-0.7-1.5l-4.2-19.2c-0.1-0.3,0-0.4,0.3-0.4h2.7c0.2,0,0.3,0,0.4,0.1s0.1,0.2,0.2,0.3l2.3,11.7     l1.1,5.6h0.2l1.5-5.1l2.9-10.1c0.1-0.4,0.3-0.7,0.6-1c0.3-0.3,0.7-0.5,1.4-0.5h1.2c0.6,0,1,0.1,1.2,0.4c0.2,0.3,0.4,0.7,0.5,1.2     l2.8,9.4l1.7,6h0.2l1.1-5.9l2.3-11.6c0-0.1,0.1-0.2,0.2-0.3c0-0.1,0.2-0.1,0.4-0.1h2.7c0.3,0,0.4,0.1,0.3,0.4l-4.3,19.2     c-0.2,0.8-0.5,1.3-0.8,1.5s-0.8,0.3-1.2,0.3h-1.4c-0.6,0-1.1-0.1-1.3-0.3s-0.5-0.7-0.7-1.3l-2.5-8.4l-1.7-6.5L301.8,295.7     L301.8,295.7z"></path>
            <path class="st3"
                  d="M347.9,310c0,0.5-0.2,0.9-0.6,1c-1.2,0.5-2.5,0.9-3.9,1.1c-1.4,0.2-2.8,0.3-4.1,0.3c-1.8,0-3.2-0.2-4.3-0.5     s-2-0.9-2.6-1.5c-0.6-0.6-1.1-1.3-1.4-2.1c-0.3-0.8-0.4-1.7-0.4-2.5c0-0.9,0.1-1.8,0.5-2.7c0.3-0.9,0.8-1.6,1.5-2.3     s1.6-1.2,2.7-1.6c1.1-0.4,2.5-0.6,4.1-0.6h4.9v-0.9c0-0.6-0.1-1.2-0.2-1.7s-0.4-1-0.7-1.3s-0.8-0.7-1.5-0.9     c-0.6-0.2-1.5-0.3-2.4-0.3c-0.9,0-2,0.1-3,0.2s-1.9,0.4-2.6,0.6c-0.2,0.1-0.4,0.1-0.5,0.1c-0.1,0-0.2-0.1-0.3-0.4l-0.5-1.7     c0-0.1-0.1-0.3,0-0.4s0.2-0.2,0.4-0.3c1-0.4,2.2-0.7,3.5-0.9c1.3-0.2,2.5-0.3,3.6-0.3c2.7,0,4.7,0.6,5.9,1.8     c1.2,1.2,1.9,2.9,1.9,5.2L347.9,310L347.9,310z M344.3,301.6h-4.7c-0.5,0-1,0-1.7,0.1c-0.6,0.1-1.2,0.2-1.8,0.5     c-0.6,0.3-1,0.7-1.4,1.2c-0.4,0.5-0.6,1.3-0.6,2.3c0,0.7,0.1,1.3,0.4,1.8s0.6,0.9,1.1,1.2s1,0.5,1.6,0.6s1.3,0.2,2,0.2     c0.2,0,0.6,0,1,0c0.4,0,0.8,0,1.3-0.1s1-0.1,1.4-0.2c0.5-0.1,0.9-0.2,1.4-0.4L344.3,301.6L344.3,301.6z"></path>
            <path class="st3"
                  d="M384.1,301.1c0,1.6-0.2,3.2-0.6,4.5s-1,2.6-1.8,3.6c-0.8,1-1.8,1.8-3.1,2.3c-1.2,0.6-2.7,0.9-4.4,0.9     c-1.3,0-2.6-0.1-4-0.3c-1.4-0.2-2.7-0.6-3.9-1.1c-0.3-0.1-0.5-0.4-0.5-0.7v-27.3c0-0.3,0-0.4,0.2-0.5c0.1-0.1,0.3-0.1,0.5-0.1     h2.3c0.2,0,0.4,0,0.5,0.1s0.1,0.2,0.1,0.5v8.1c0.9-0.3,1.8-0.5,2.9-0.6s1.9-0.2,2.7-0.2c1.6,0,3,0.3,4.1,0.8     c1.1,0.5,2.1,1.3,2.9,2.2c0.8,0.9,1.3,2.1,1.7,3.4S384.1,299.6,384.1,301.1z M369.4,308.8c0.8,0.3,1.6,0.5,2.5,0.5     s1.6,0.1,2.3,0.1c0.9,0,1.8-0.1,2.5-0.5s1.5-0.8,2-1.4c0.6-0.6,1-1.5,1.3-2.5s0.5-2.2,0.5-3.7c0-2.7-0.5-4.7-1.6-6s-2.5-2-4.4-2     c-0.5,0-1.2,0-2.2,0.1c-0.9,0.1-1.9,0.3-3,0.7L369.4,308.8L369.4,308.8z"></path>
            <path class="st3"
                  d="M408.6,311.6c0,0.1-0.2,0.2-0.4,0.3c-0.5,0.2-1,0.4-1.5,0.4c-0.6,0-1.1,0.1-1.5,0.1c-1.4,0-2.3-0.3-2.9-1     s-0.8-1.7-0.8-3v-25.3c0-0.3,0-0.4,0.2-0.5c0.1-0.1,0.3-0.1,0.5-0.1h2.2c0.2,0,0.4,0,0.5,0.1s0.1,0.2,0.1,0.5v24.3     c0,0.8,0.1,1.3,0.3,1.6c0.2,0.3,0.6,0.4,1.1,0.4c0.3,0,0.5,0,0.8,0c0.2,0,0.5,0,0.7-0.1c0.2,0,0.3,0,0.4,0c0.1,0,0.1,0.1,0.2,0.3     l0.2,1.5C408.6,311.4,408.6,311.6,408.6,311.6z"></path>
            <path class="st3"
                  d="M432.7,290.3c1.5,0,2.9,0.2,4,0.6c1.1,0.4,2,1,2.8,1.8c0.7,0.8,1.2,1.7,1.6,2.8c0.4,1.1,0.5,2.3,0.5,3.6     c0,0.6-0.1,1.2-0.2,1.6c-0.2,0.4-0.4,0.7-0.7,1c-0.3,0.2-0.6,0.4-1,0.5c-0.4,0.1-0.8,0.1-1.1,0.1h-11.6c0,1.3,0.2,2.3,0.5,3.2     s0.8,1.6,1.4,2.2c0.6,0.5,1.3,1,2,1.2s1.6,0.4,2.5,0.4c0.9,0,1.8-0.1,2.6-0.3s1.6-0.5,2.1-0.8c0.3-0.2,0.6-0.1,0.8,0.2l0.9,1.7     c0.2,0.4,0.1,0.6-0.2,0.8c-1,0.6-2,1-3.1,1.2s-2.2,0.3-3.3,0.3c-1.5,0-2.9-0.2-4.1-0.6s-2.2-1.1-3-2c-0.8-0.9-1.5-2-1.9-3.4     s-0.7-3-0.7-4.9c0-1.8,0.2-3.4,0.7-4.7s1.1-2.5,2-3.5c0.8-0.9,1.8-1.7,3-2.2S431.4,290.3,432.7,290.3z M438.3,299.6     c0-0.8-0.1-1.6-0.2-2.4c-0.2-0.8-0.5-1.4-0.9-2c-0.4-0.6-1-1-1.7-1.4c-0.7-0.3-1.6-0.5-2.7-0.5c-0.9,0-1.7,0.2-2.4,0.5     s-1.3,0.8-1.7,1.4c-0.5,0.6-0.8,1.2-1.1,2s-0.4,1.5-0.5,2.4L438.3,299.6L438.3,299.6z"></path>
            <path class="st3"
                  d="M472.9,306.2c0,1-0.2,2-0.6,2.7c-0.4,0.8-0.9,1.4-1.6,1.9s-1.5,0.9-2.4,1.1s-1.9,0.4-3,0.4     c-1.3,0-2.6-0.1-4-0.4s-2.7-0.7-3.8-1.2c-0.2-0.1-0.3-0.2-0.3-0.3c-0.1-0.1,0-0.3,0.1-0.5l0.8-1.7c0.1-0.2,0.2-0.4,0.3-0.4     s0.3,0,0.6,0.1c1.1,0.5,2.2,0.9,3.3,1.1c1.1,0.2,2.2,0.3,3.1,0.3c1.3,0,2.3-0.3,3.1-0.8s1.1-1.3,1.1-2.2c0-1-0.4-1.8-1.3-2.3     c-0.9-0.6-2.1-1.1-3.7-1.7c-1.1-0.4-2.1-0.8-2.9-1.2s-1.5-0.8-2-1.3c-0.5-0.5-0.9-1-1.1-1.6c-0.2-0.6-0.4-1.3-0.4-2.1     c0-1.7,0.6-3.1,1.8-4.2c1.2-1.1,3-1.6,5.3-1.6c1.1,0,2.2,0.1,3.2,0.3s2.1,0.5,3.1,0.9c0.3,0.2,0.4,0.4,0.3,0.8l-0.8,1.9     c-0.1,0.2-0.2,0.2-0.3,0.2s-0.2,0-0.3-0.1c-1.1-0.4-2-0.7-2.8-0.8c-0.8-0.1-1.7-0.2-2.6-0.2c-1.2,0-2.1,0.3-2.8,0.8     c-0.6,0.5-0.9,1.1-0.9,1.9c0,0.5,0.1,0.9,0.3,1.2c0.2,0.3,0.5,0.6,0.8,0.9s0.9,0.6,1.5,0.8s1.4,0.6,2.2,0.9     c0.8,0.3,1.7,0.7,2.4,1s1.5,0.8,2.1,1.3s1.1,1.1,1.5,1.8C472.7,304.5,472.9,305.3,472.9,306.2z"></path>
		</g>
	</g>
</g>
</svg>
