<?xml version="1.0" standalone="no"?>
<!DOCTYPE svg PUBLIC "-//W3C//DTD SVG 20010904//EN"
 "http://www.w3.org/TR/2001/REC-SVG-20010904/DTD/svg10.dtd">
<svg version="1.0" xmlns="http://www.w3.org/2000/svg"
 width="408.000000pt" height="408.000000pt" viewBox="0 0 408.000000 408.000000"
 preserveAspectRatio="xMidYMid meet">
<metadata>
Created by potrace 1.14, written by Peter Selinger 2001-2017
</metadata>
<g transform="translate(0.000000,408.000000) scale(0.100000,-0.100000)"
fill="#000000" stroke="none">
<path d="M1275 2932 c62 -37 126 -105 158 -169 14 -26 114 -266 222 -533 109
-267 200 -487 202 -490 7 -8 23 24 49 105 21 64 27 100 27 180 1 57 -4 117
-12 140 -36 110 -235 598 -261 638 -59 94 -166 142 -338 153 l-97 6 50 -30z"/>
<path d="M1796 2931 c63 -37 135 -116 168 -184 13 -29 110 -263 216 -522 105
-259 195 -474 199 -478 11 -11 47 76 66 155 35 150 18 230 -125 583 -112 276
-125 333 -93 395 10 19 33 45 52 57 l34 23 -284 0 -284 0 51 -29z"/>
<path d="M2484 2928 c61 -34 116 -95 138 -154 7 -19 14 -34 18 -34 3 0 13 20
23 44 25 61 72 111 137 146 l55 30 -215 0 -215 -1 59 -31z"/>
<path d="M0 1417 c0 -2 20 -52 44 -112 27 -68 50 -111 60 -113 11 -2 23 12 37
45 l21 48 21 -48 c13 -33 25 -47 36 -45 9 2 32 43 58 103 46 112 50 128 27
123 -10 -2 -30 -38 -52 -92 l-36 -90 -17 40 c-16 37 -15 42 2 89 23 60 22 55
4 55 -8 0 -21 -15 -29 -32 l-14 -33 -13 33 c-8 19 -20 32 -31 32 -17 0 -16 -3
2 -51 20 -49 20 -51 2 -91 l-18 -41 -34 91 c-26 69 -39 92 -52 92 -10 0 -18
-1 -18 -3z"/>
<path d="M692 1308 l3 -113 33 -3 c24 -2 32 1 32 12 0 9 -9 16 -20 16 -19 0
-20 7 -20 100 0 83 -3 100 -15 100 -13 0 -15 -17 -13 -112z"/>
<path d="M900 1305 c0 -96 3 -115 15 -115 9 0 15 9 15 24 0 13 7 30 16 37 17
14 17 14 59 -44 7 -11 21 -17 30 -15 13 2 11 10 -14 43 -37 49 -38 55 -6 85
14 13 25 27 25 32 0 18 -28 6 -60 -27 -19 -19 -38 -35 -42 -35 -4 0 -8 29 -8
65 0 51 -3 65 -15 65 -12 0 -15 -19 -15 -115z"/>
<path d="M1888 1409 c-20 -11 -24 -59 -7 -76 9 -9 6 -19 -10 -39 -26 -33 -27
-58 -1 -84 23 -23 88 -28 108 -8 9 9 15 9 24 0 7 -7 21 -12 32 -12 19 0 19 0
-1 23 -15 16 -18 28 -13 42 13 32 11 55 -5 55 -8 0 -15 -9 -15 -20 0 -26 -12
-25 -38 3 -21 22 -21 23 -2 35 22 14 27 61 8 80 -15 15 -57 15 -80 1z m62 -33
c0 -18 -27 -39 -40 -31 -5 3 -10 15 -10 26 0 14 7 19 25 19 15 0 25 -6 25 -14z
m-6 -115 l28 -29 -22 -12 c-17 -9 -26 -8 -46 5 -27 18 -28 19 -14 46 14 25 21
24 54 -10z"/>
<path d="M2320 1417 c0 -3 57 -143 87 -214 11 -26 34 -11 55 35 l21 47 20 -47
c32 -73 46 -64 96 63 24 60 41 113 38 116 -15 15 -34 -11 -61 -83 -16 -44 -32
-83 -36 -87 -4 -4 -13 11 -20 33 -14 41 -13 45 17 128 11 28 -28 9 -41 -20
l-14 -33 -12 33 c-7 17 -18 32 -26 32 -18 0 -18 -6 1 -61 14 -41 14 -49 -1
-85 l-17 -39 -35 93 c-27 70 -40 92 -54 92 -10 0 -18 -2 -18 -3z"/>
<path d="M3000 1400 c0 -13 7 -20 20 -20 13 0 20 7 20 20 0 13 -7 20 -20 20
-13 0 -20 -7 -20 -20z"/>
<path d="M3470 1305 c0 -96 3 -115 15 -115 11 0 15 13 15 53 0 42 5 58 21 73
34 30 53 9 57 -65 2 -45 7 -61 17 -61 22 0 21 133 -1 154 -18 18 -47 20 -75 6
-17 -10 -19 -7 -19 30 0 29 -4 40 -15 40 -12 0 -15 -19 -15 -115z"/>
<path d="M3750 1390 c0 -16 -4 -30 -10 -30 -5 0 -10 -7 -10 -15 0 -8 5 -15 10
-15 6 0 10 -26 10 -59 0 -65 13 -84 55 -79 31 4 34 22 5 26 -17 3 -20 11 -20
58 0 41 4 54 15 54 8 0 15 7 15 15 0 8 -7 15 -15 15 -10 0 -15 10 -15 30 0 23
-4 30 -20 30 -16 0 -20 -7 -20 -30z"/>
<path d="M438 1349 c-32 -18 -20 -30 23 -23 30 5 43 3 50 -7 15 -24 10 -29
-27 -29 -51 0 -74 -15 -74 -49 0 -41 18 -50 87 -48 l60 1 -4 66 c-4 49 -10 69
-25 83 -22 19 -64 22 -90 6z m80 -101 c4 -21 -32 -41 -58 -33 -22 7 -27 40 -7
49 24 10 62 1 65 -16z"/>
<path d="M1169 1331 c-37 -38 -39 -82 -4 -116 31 -32 93 -34 119 -6 24 27 4
35 -32 14 -29 -17 -31 -17 -51 1 -12 11 -21 23 -21 28 0 4 29 8 65 8 63 0 65
1 65 25 0 14 -11 37 -25 50 -34 35 -78 33 -116 -4z m97 -18 c17 -17 16 -18
-30 -21 -55 -4 -64 1 -46 23 17 20 54 19 76 -2z"/>
<path d="M1437 1353 c-4 -3 -7 -42 -7 -85 0 -71 2 -78 20 -78 18 0 20 7 20 55
0 52 2 57 30 73 16 9 30 20 30 24 0 14 -20 19 -39 8 -13 -7 -22 -7 -26 0 -7
12 -19 13 -28 3z"/>
<path d="M2745 1335 c-53 -52 -18 -145 54 -145 42 0 88 27 73 42 -6 6 -19 4
-35 -7 -30 -19 -62 -13 -77 16 -10 18 -7 19 60 19 64 0 70 2 70 21 0 11 -13
34 -29 50 -38 37 -82 39 -116 4z m95 -20 c18 -22 9 -27 -46 -23 -46 3 -47 4
-30 21 22 21 59 22 76 2z"/>
<path d="M3007 1353 c-4 -3 -7 -42 -7 -85 0 -71 2 -78 20 -78 18 0 20 7 20 85
0 64 -3 85 -13 85 -8 0 -17 -3 -20 -7z"/>
<path d="M3192 1338 c-30 -33 -36 -70 -18 -107 19 -36 57 -49 98 -33 27 10 28
9 22 -11 -4 -12 -12 -25 -18 -29 -17 -12 -54 -9 -76 4 -29 18 -39 -1 -11 -23
33 -27 86 -25 116 6 23 22 25 32 25 120 0 78 -3 95 -15 95 -8 0 -15 -5 -15
-10 0 -7 -6 -7 -19 0 -32 16 -66 12 -89 -12z m90 -25 c35 -32 15 -93 -30 -93
-35 0 -52 17 -52 51 0 51 46 75 82 42z"/>
<path d="M3965 1344 c-9 -9 -15 -28 -13 -42 2 -22 11 -29 51 -40 28 -8 47 -19
47 -27 0 -20 -43 -29 -69 -15 -29 15 -50 1 -26 -17 23 -16 97 -17 113 -1 16
16 15 53 0 66 -7 6 -29 14 -48 19 -49 13 -46 38 5 39 59 2 62 3 41 19 -26 20
-81 19 -101 -1z"/>
</g>
</svg>
