<svg xmlns="http://www.w3.org/2000/svg" xmlns:xlink="http://www.w3.org/1999/xlink" width="384" height="384" version="1.1" viewBox="0 0 384 384"><path id="Rounded-Rectangle" fill="#fff" fill-opacity="1" stroke="none" d="M75 0 C33.579 0 0 33.579 0 75 L0 309 C0 350.421 33.579 384 75 384 L309 384 C350.421 384 384 350.421 384 309 L384 75 C384 33.579 350.421 0 309 0 Z"/><g id="New-Group"><g id="group"><path id="Path" fill="#dbc094" fill-opacity="1" stroke="none" d="M82.384 92.579 C75.721 91.936 69.5 92.627 63.721 94.653 61.116 94.734 59.043 93.697 57.5 91.542 66.186 89.859 74.481 90.205 82.384 92.579 Z"/></g><g id="group-1"><path id="Path-1" fill="#d2b27c" fill-opacity="1" stroke="none" d="M229.612 94.653 C203.346 91.889 177.081 91.889 150.814 94.653 148.209 94.734 146.136 93.697 144.593 91.542 175.007 90.159 205.419 90.159 235.833 91.542 234.291 93.697 232.217 94.734 229.612 94.653 Z"/></g><g id="group-2"><path id="Path-2" fill="#d3b37e" fill-opacity="1" stroke="none" d="M318.779 94.653 C300.807 91.889 282.837 91.889 264.864 94.653 262.26 94.734 260.186 93.697 258.643 91.542 280.763 90.159 302.88 90.159 325 91.542 323.457 93.697 321.384 94.734 318.779 94.653 Z"/></g><g id="group-3"><path id="Path-3" fill="#c69c57" fill-opacity="1" stroke="none" d="M63.721 94.653 C69.5 92.627 75.721 91.936 82.384 92.579 108.617 94.798 126.934 107.93 137.335 131.978 148.417 159.823 159.478 187.471 170.514 214.924 179.067 241.815 176.303 267.389 162.219 291.649 138.04 232.886 113.157 174.134 87.568 115.389 80.497 107.269 72.548 100.357 63.721 94.653 Z"/></g><g id="group-4"><path id="Path-4" fill="#c69b56" fill-opacity="1" stroke="none" d="M150.814 94.653 C177.081 91.889 203.346 91.889 229.612 94.653 225.979 98.273 223.215 102.421 221.318 107.095 219.953 109.776 219.261 112.886 219.244 116.426 218.904 121.701 220.287 126.193 223.391 129.905 237.801 163.62 250.589 198.182 261.754 233.587 263.21 254.734 259.062 274.78 249.312 293.723 228.526 242.489 207.789 191.341 187.103 140.273 180.552 120.287 168.456 105.079 150.814 94.653 Z"/></g><g id="group-5"><path id="Path-5" fill="#c69d58" fill-opacity="1" stroke="none" d="M264.864 94.653 C282.837 91.889 300.807 91.889 318.779 94.653 306.02 101.541 297.379 111.91 292.859 125.758 286.812 112.453 277.48 102.085 264.864 94.653 Z"/></g><g id="group-6"><path id="Path-6" fill="#ddc39a" fill-opacity="1" stroke="none" d="M221.318 107.095 C221.158 114.798 221.849 122.4 223.391 129.905 220.287 126.193 218.904 121.701 219.244 116.426 219.261 112.886 219.953 109.776 221.318 107.095 Z"/></g></g></svg>